<?xml version="1.0" encoding="UTF-8" standalone="no"?>
<svg
   xmlns:dc="http://purl.org/dc/elements/1.1/"
   xmlns:cc="http://creativecommons.org/ns#"
   xmlns:rdf="http://www.w3.org/1999/02/22-rdf-syntax-ns#"
   xmlns:svg="http://www.w3.org/2000/svg"
   xmlns="http://www.w3.org/2000/svg"
   xmlns:sodipodi="http://sodipodi.sourceforge.net/DTD/sodipodi-0.dtd"
   xmlns:inkscape="http://www.inkscape.org/namespaces/inkscape"
   style="font-style:normal;font-weight:normal;font-size:12px;font-family:Dialog;color-interpolation:auto;fill:#000000;fill-opacity:1;stroke:#000000;stroke-width:1;stroke-linecap:square;stroke-linejoin:miter;stroke-miterlimit:10;stroke-dasharray:none;stroke-dashoffset:0;stroke-opacity:1;color-rendering:auto;image-rendering:auto;shape-rendering:auto;text-rendering:auto"
   width="590.98962"
   height="355.74689"
   version="1.1"
   id="svg305"
   sodipodi:docname="olympic-rings.svg"
   inkscape:version="0.92.3 (2405546, 2018-03-11)">
  <metadata
     id="metadata309">
    <rdf:RDF>
      <cc:Work
         rdf:about="">
        <dc:format>image/svg+xml</dc:format>
        <dc:type
           rdf:resource="http://purl.org/dc/dcmitype/StillImage" />
        <dc:title></dc:title>
      </cc:Work>
    </rdf:RDF>
  </metadata>
  <sodipodi:namedview
     pagecolor="#ffffff"
     bordercolor="#666666"
     borderopacity="1"
     objecttolerance="10"
     gridtolerance="10"
     guidetolerance="10"
     inkscape:pageopacity="0"
     inkscape:pageshadow="2"
     inkscape:window-width="1271"
     inkscape:window-height="809"
     id="namedview307"
     showgrid="false"
     fit-margin-top="12"
     fit-margin-left="20"
     fit-margin-right="20"
     fit-margin-bottom="12"
     inkscape:zoom="0.89904762"
     inkscape:cx="516.19805"
     inkscape:cy="-18.251924"
     inkscape:window-x="191"
     inkscape:window-y="100"
     inkscape:window-maximized="0"
     inkscape:current-layer="svg305" />
  <!--Generated by the Batik Graphics2D SVG Generator-->
  <defs
     id="genericDefs" />
  <g
     id="g303"
     transform="translate(-67.00415,-75.12655)">
    <defs
       id="defs1">
      <clipPath
         clipPathUnits="userSpaceOnUse"
         id="clipPath1">
        <path
           d="M 0,0 H 700 V 525 H 0 Z"
           id="path227"
           inkscape:connector-curvature="0" />
      </clipPath>
    </defs>
    <g
       style="fill:#ffffff;stroke:#ffffff"
       id="g233" />
    <g
       style="color-interpolation:linearRGB;fill:#0072bd;stroke:#0072bd;stroke-width:0.83329999;stroke-linecap:butt;stroke-linejoin:bevel;stroke-miterlimit:1;stroke-dasharray:10, 6;color-rendering:optimizeQuality;image-rendering:optimizeQuality;text-rendering:geometricPrecision"
       id="g241">
      <path
         d="m 192.8776,193.0385 h 169.5968 169.5968 l -84.7984,119.923 H 277.676 l -84.7984,-119.923"
         style="fill:none;fill-rule:evenodd"
         id="path239"
         inkscape:connector-curvature="0" />
    </g>
    <g
       transform="translate(192.8776,193.0385)"
       style="color-interpolation:linearRGB;fill:#0072bd;stroke:#0072bd;color-rendering:optimizeQuality;image-rendering:optimizeQuality;text-rendering:geometricPrecision"
       id="g245">
      <circle
         r="4.8888998"
         style="stroke:none"
         cx="0"
         cy="0"
         id="circle243" />
    </g>
    <g
       transform="translate(192.8776,193.0385)"
       style="color-interpolation:linearRGB;fill:#0072bd;stroke:#0072bd;stroke-linecap:butt;color-rendering:optimizeQuality;image-rendering:optimizeQuality;text-rendering:geometricPrecision"
       id="g249">
      <circle
         r="4.8888998"
         style="fill:none"
         cx="0"
         cy="0"
         id="circle247" />
    </g>
    <g
       transform="translate(362.4744,193.0385)"
       style="color-interpolation:linearRGB;fill:#0072bd;stroke:#0072bd;color-rendering:optimizeQuality;image-rendering:optimizeQuality;text-rendering:geometricPrecision"
       id="g253">
      <circle
         r="4.8888998"
         style="stroke:none"
         cx="0"
         cy="0"
         id="circle251" />
    </g>
    <g
       transform="translate(362.4744,193.0385)"
       style="color-interpolation:linearRGB;fill:#0072bd;stroke:#0072bd;stroke-linecap:butt;color-rendering:optimizeQuality;image-rendering:optimizeQuality;text-rendering:geometricPrecision"
       id="g257">
      <circle
         r="4.8888998"
         style="fill:none"
         cx="0"
         cy="0"
         id="circle255" />
    </g>
    <g
       transform="translate(532.0712,193.0385)"
       style="color-interpolation:linearRGB;fill:#0072bd;stroke:#0072bd;color-rendering:optimizeQuality;image-rendering:optimizeQuality;text-rendering:geometricPrecision"
       id="g261">
      <circle
         r="4.8888998"
         style="stroke:none"
         cx="0"
         cy="0"
         id="circle259" />
    </g>
    <g
       transform="translate(532.0712,193.0385)"
       style="color-interpolation:linearRGB;fill:#0072bd;stroke:#0072bd;stroke-linecap:butt;color-rendering:optimizeQuality;image-rendering:optimizeQuality;text-rendering:geometricPrecision"
       id="g265">
      <circle
         r="4.8888998"
         style="fill:none"
         cx="0"
         cy="0"
         id="circle263" />
    </g>
    <g
       transform="translate(447.2728,312.9615)"
       style="color-interpolation:linearRGB;fill:#0072bd;stroke:#0072bd;color-rendering:optimizeQuality;image-rendering:optimizeQuality;text-rendering:geometricPrecision"
       id="g269">
      <circle
         r="4.8888998"
         style="stroke:none"
         cx="0"
         cy="0"
         id="circle267" />
    </g>
    <g
       transform="translate(447.2728,312.9615)"
       style="color-interpolation:linearRGB;fill:#0072bd;stroke:#0072bd;stroke-linecap:butt;color-rendering:optimizeQuality;image-rendering:optimizeQuality;text-rendering:geometricPrecision"
       id="g273">
      <circle
         r="4.8888998"
         style="fill:none"
         cx="0"
         cy="0"
         id="circle271" />
    </g>
    <g
       transform="translate(277.676,312.9615)"
       style="color-interpolation:linearRGB;fill:#0072bd;stroke:#0072bd;color-rendering:optimizeQuality;image-rendering:optimizeQuality;text-rendering:geometricPrecision"
       id="g277">
      <circle
         r="4.8888998"
         style="stroke:none"
         cx="0"
         cy="0"
         id="circle275" />
    </g>
    <g
       transform="translate(277.676,312.9615)"
       style="color-interpolation:linearRGB;fill:#0072bd;stroke:#0072bd;stroke-linecap:butt;color-rendering:optimizeQuality;image-rendering:optimizeQuality;text-rendering:geometricPrecision"
       id="g281">
      <circle
         r="4.8888998"
         style="fill:none"
         cx="0"
         cy="0"
         id="circle279" />
    </g>
    <g
       transform="translate(192.8776,193.0385)"
       style="color-interpolation:linearRGB;fill:#0072bd;stroke:#0072bd;color-rendering:optimizeQuality;image-rendering:optimizeQuality;text-rendering:geometricPrecision"
       id="g285">
      <circle
         r="4.8888998"
         style="stroke:none"
         cx="0"
         cy="0"
         id="circle283" />
    </g>
    <g
       transform="translate(192.8776,193.0385)"
       style="color-interpolation:linearRGB;fill:#0072bd;stroke:#0072bd;stroke-linecap:butt;color-rendering:optimizeQuality;image-rendering:optimizeQuality;text-rendering:geometricPrecision"
       id="g289">
      <circle
         r="4.8888998"
         style="fill:none"
         cx="0"
         cy="0"
         id="circle287" />
    </g>
    <g
       style="color-interpolation:linearRGB;fill:#0000ff;stroke:#0000ff;stroke-width:8.33329964;stroke-linecap:butt;stroke-linejoin:round;color-rendering:optimizeQuality;image-rendering:optimizeQuality;text-rendering:geometricPrecision"
       id="g301">
      <path
         d="m 294.6357,193.0385 -0.2049,-6.4539 -0.6138,-6.4279 -1.0202,-6.3761 -1.4226,-6.2985 -1.8192,-6.1955 -2.2085,-6.0678 -2.5888,-5.9154 -2.9589,-5.7394 -3.3169,-5.5401 -3.6616,-5.3186 -3.9915,-5.0756 -4.3054,-4.8123 -4.602,-4.5296 -4.88,-4.2285 -5.1383,-3.9105 -5.3761,-3.5767 -5.592,-3.2286 -5.7856,-2.8674 -5.9558,-2.4947 -6.102,-2.1119 -6.2236,-1.7207 -6.3203,-1.3225 -6.3914,-0.9189 -6.4369,-0.5117 -6.4563,-0.1025 -6.4498,0.3073 -6.4174,0.7157 -6.359,1.1212 -6.2752,1.5224 -6.1659,1.9172 -6.0319,2.3045 -5.8737,2.6824 -5.6916,3.0495 -5.4868,3.4044 -5.2599,3.7455 -5.0117,4.0716 -4.7433,4.3812 -4.456,4.6733 -4.1506,4.9464 -3.8284,5.1998 -3.491,5.4321 -3.1395,5.6425 -2.7752,5.8304 -2.3999,5.9946 -2.0149,6.1347 -1.6217,6.2502 -1.222,6.3405 -0.8174,6.4052 -0.4095,6.4441 v 6.4572 l 0.4095,6.4441 0.8174,6.4052 1.222,6.3405 1.6217,6.2501 2.0149,6.1348 2.3999,5.9946 2.7752,5.8303 3.1395,5.6426 3.491,5.4321 3.8284,5.1997 4.1506,4.9465 4.456,4.6733 4.7433,4.3812 5.0117,4.0716 5.2599,3.7455 5.4868,3.4043 5.6916,3.0496 5.8737,2.6824 6.0319,2.3045 6.1659,1.9172 6.2752,1.5223 6.359,1.1213 6.4174,0.7157 6.4498,0.3073 6.4563,-0.1025 6.4369,-0.5117 6.3914,-0.919 6.3203,-1.3224 6.2236,-1.7207 6.102,-2.1119 5.9558,-2.4947 5.7856,-2.8674 5.592,-3.2286 5.3761,-3.5767 5.1383,-3.9106 4.88,-4.2285 4.602,-4.5295 4.3054,-4.8123 3.9915,-5.0757 3.6616,-5.3186 3.3169,-5.5401 2.9589,-5.7393 2.5888,-5.9155 2.2085,-6.0677 1.8192,-6.1956 1.4226,-6.2985 1.0202,-6.376 0.6138,-6.4279 0.2049,-6.4539"
         style="fill:none;fill-rule:evenodd"
         id="path291"
         inkscape:connector-curvature="0" />
      <path
         d="m 464.2325,193.0385 -0.2049,-6.4539 -0.6138,-6.4279 -1.0202,-6.3761 -1.4226,-6.2985 -1.8192,-6.1955 -2.2085,-6.0678 -2.5888,-5.9154 -2.9589,-5.7394 -3.3169,-5.5401 -3.6616,-5.3186 -3.9915,-5.0756 -4.3054,-4.8123 -4.602,-4.5296 -4.88,-4.2285 -5.1384,-3.9105 -5.376,-3.5767 -5.592,-3.2286 -5.7856,-2.8674 -5.9558,-2.4947 -6.102,-2.1119 -6.2236,-1.7207 -6.3203,-1.3225 -6.3914,-0.9189 -6.4369,-0.5117 -6.4563,-0.1025 -6.4498,0.3073 -6.4174,0.7157 -6.359,1.1212 -6.2752,1.5224 -6.1659,1.9172 -6.032,2.3045 -5.8736,2.6824 -5.6917,3.0495 -5.4867,3.4044 -5.2599,3.7455 -5.0117,4.0716 -4.7433,4.3812 -4.456,4.6733 -4.1505,4.9464 -3.8286,5.1998 -3.491,5.4321 -3.1394,5.6425 -2.7752,5.8304 -2.3999,5.9946 -2.0149,6.1347 -1.6217,6.2502 -1.222,6.3405 -0.8174,6.4052 -0.4096,6.4441 v 6.4572 l 0.4096,6.4441 0.8174,6.4052 1.222,6.3405 1.6217,6.2501 2.0149,6.1348 2.3999,5.9946 2.7752,5.8303 3.1394,5.6426 3.491,5.4321 3.8286,5.1997 4.1505,4.9465 4.456,4.6733 4.7433,4.3812 5.0117,4.0716 5.2599,3.7455 5.4867,3.4043 5.6917,3.0496 5.8736,2.6824 6.032,2.3045 6.1659,1.9172 6.2752,1.5223 6.359,1.1213 6.4174,0.7157 6.4498,0.3073 6.4563,-0.1025 6.4369,-0.5117 6.3914,-0.919 6.3203,-1.3224 6.2236,-1.7207 6.102,-2.1119 5.9558,-2.4947 5.7856,-2.8674 5.592,-3.2286 5.376,-3.5767 5.1384,-3.9106 4.88,-4.2285 4.602,-4.5295 4.3054,-4.8123 3.9915,-5.0757 3.6616,-5.3186 3.3169,-5.5401 2.9589,-5.7393 2.5888,-5.9155 2.2085,-6.0677 1.8192,-6.1956 1.4226,-6.2985 1.0202,-6.376 0.6138,-6.4279 0.2049,-6.4539"
         style="fill:none;fill-rule:evenodd;stroke:#000000"
         id="path293"
         inkscape:connector-curvature="0" />
      <path
         d="m 633.8292,193.0385 -0.2048,-6.4539 -0.6138,-6.4279 -1.0202,-6.3761 -1.4227,-6.2985 -1.8191,-6.1955 -2.2085,-6.0678 -2.5889,-5.9154 -2.9588,-5.7394 -3.3169,-5.5401 -3.6616,-5.3186 -3.9915,-5.0756 -4.3054,-4.8123 -4.602,-4.5296 -4.88,-4.2285 -5.1384,-3.9105 -5.376,-3.5767 -5.5921,-3.2286 -5.7855,-2.8674 -5.9558,-2.4947 -6.102,-2.1119 -6.2236,-1.7207 -6.3203,-1.3225 -6.3914,-0.9189 -6.4369,-0.5117 -6.4563,-0.1025 -6.4499,0.3073 -6.4173,0.7157 -6.3591,1.1212 -6.2751,1.5224 -6.1659,1.9172 -6.032,2.3045 -5.8736,2.6824 -5.6917,3.0495 -5.4868,3.4044 -5.2598,3.7455 -5.0117,4.0716 -4.7434,4.3812 -4.4559,4.6733 -4.1506,4.9464 -3.8285,5.1998 -3.491,5.4321 -3.1394,5.6425 -2.7753,5.8304 -2.3998,5.9946 -2.0149,6.1347 -1.6217,6.2502 -1.222,6.3405 -0.8174,6.4052 -0.4096,6.4441 v 6.4572 l 0.4096,6.4441 0.8174,6.4052 1.222,6.3405 1.6217,6.2501 2.0149,6.1348 2.3998,5.9946 2.7753,5.8303 3.1394,5.6426 3.491,5.4321 3.8285,5.1997 4.1506,4.9465 4.4559,4.6733 4.7434,4.3812 5.0117,4.0716 5.2598,3.7455 5.4868,3.4043 5.6917,3.0496 5.8736,2.6824 6.032,2.3045 6.1659,1.9172 6.2751,1.5223 6.3591,1.1213 6.4173,0.7157 6.4499,0.3073 6.4563,-0.1025 6.4369,-0.5117 6.3914,-0.919 6.3203,-1.3224 6.2236,-1.7207 6.102,-2.1119 5.9558,-2.4947 5.7855,-2.8674 5.5921,-3.2286 5.376,-3.5767 5.1384,-3.9106 4.88,-4.2285 4.602,-4.5295 4.3054,-4.8123 3.9915,-5.0757 3.6616,-5.3186 3.3169,-5.5401 2.9588,-5.7393 2.5889,-5.9155 2.2085,-6.0677 1.8191,-6.1956 1.4227,-6.2985 1.0202,-6.376 0.6138,-6.4279 0.2048,-6.4539"
         style="fill:none;fill-rule:evenodd;stroke:#ff0000"
         id="path295"
         inkscape:connector-curvature="0" />
      <path
         d="m 549.0309,312.9615 -0.2049,-6.4539 -0.6138,-6.4279 -1.0202,-6.376 -1.4227,-6.2985 -1.8191,-6.1956 -2.2085,-6.0677 -2.5889,-5.9155 -2.9588,-5.7393 -3.3169,-5.5401 -3.6616,-5.3186 -3.9915,-5.0757 -4.3054,-4.8123 -4.602,-4.5295 -4.88,-4.2286 -5.1384,-3.9105 -5.376,-3.5767 -5.592,-3.2286 -5.7856,-2.8674 -5.9558,-2.4947 -6.102,-2.1119 -6.2236,-1.7206 -6.3203,-1.3225 -6.3914,-0.919 -6.4369,-0.5117 -6.4563,-0.1025 -6.4498,0.3073 -6.4174,0.7157 -6.3591,1.1213 -6.2751,1.5223 -6.1659,1.9173 -6.032,2.3044 -5.8736,2.6824 -5.6917,3.0495 -5.4867,3.4044 -5.2599,3.7455 -5.0117,4.0716 -4.7433,4.3812 -4.456,4.6733 -4.1506,4.9465 -3.8285,5.1997 -3.491,5.4321 -3.1394,5.6426 -2.7752,5.8303 -2.3999,5.9946 -2.0149,6.1347 -1.6217,6.2503 -1.222,6.3404 -0.8174,6.4052 -0.4096,6.4441 v 6.4572 l 0.4096,6.4441 0.8174,6.4052 1.222,6.3405 1.6217,6.2502 2.0149,6.1347 2.3999,5.9946 2.7752,5.8304 3.1394,5.6426 3.491,5.432 3.8285,5.1998 4.1506,4.9464 4.456,4.6733 4.7433,4.3812 5.0117,4.0716 5.2599,3.7455 5.4867,3.4044 5.6917,3.0495 5.8736,2.6824 6.032,2.3045 6.1659,1.9173 6.2751,1.5223 6.3591,1.1212 6.4174,0.7157 6.4498,0.3073 6.4563,-0.1025 6.4369,-0.5117 6.3914,-0.919 6.3203,-1.3224 6.2236,-1.7207 6.102,-2.1119 5.9558,-2.4947 5.7856,-2.8674 5.592,-3.2286 5.376,-3.5767 5.1384,-3.9105 4.88,-4.2285 4.602,-4.5296 4.3054,-4.8122 3.9915,-5.0757 3.6616,-5.3186 3.3169,-5.5401 2.9588,-5.7394 2.5889,-5.9154 2.2085,-6.0678 1.8191,-6.1955 1.4227,-6.2985 1.0202,-6.3761 0.6138,-6.4279 0.2049,-6.4539"
         style="fill:none;fill-rule:evenodd;stroke:#00ff00"
         id="path297"
         inkscape:connector-curvature="0" />
      <path
         d="m 379.4341,312.9615 -0.2049,-6.4539 -0.6138,-6.4279 -1.0202,-6.376 -1.4226,-6.2985 -1.8192,-6.1956 -2.2085,-6.0677 -2.5888,-5.9155 -2.9589,-5.7393 -3.3169,-5.5401 -3.6616,-5.3186 -3.9915,-5.0757 -4.3054,-4.8123 -4.602,-4.5295 -4.88,-4.2286 -5.1383,-3.9105 -5.3761,-3.5767 -5.592,-3.2286 -5.7856,-2.8674 -5.9558,-2.4947 -6.102,-2.1119 -6.2236,-1.7206 -6.3203,-1.3225 -6.3914,-0.919 -6.4369,-0.5117 -6.4563,-0.1025 -6.4498,0.3073 -6.4174,0.7157 -6.359,1.1213 -6.2752,1.5223 -6.1659,1.9173 -6.0319,2.3044 -5.8737,2.6824 -5.6916,3.0495 -5.4868,3.4044 -5.2599,3.7455 -5.0117,4.0716 -4.7433,4.3812 -4.456,4.6733 -4.1506,4.9465 -3.8285,5.1997 -3.491,5.4321 -3.1394,5.6426 -2.7752,5.8303 -2.3999,5.9946 -2.0149,6.1347 -1.6217,6.2503 -1.222,6.3404 -0.8174,6.4052 -0.4096,6.4441 v 6.4572 l 0.4096,6.4441 0.8174,6.4052 1.222,6.3405 1.6217,6.2502 2.0149,6.1347 2.3999,5.9946 2.7752,5.8304 3.1394,5.6426 3.491,5.432 3.8285,5.1998 4.1506,4.9464 4.456,4.6733 4.7433,4.3812 5.0117,4.0716 5.2599,3.7455 5.4868,3.4044 5.6916,3.0495 5.8737,2.6824 6.0319,2.3045 6.1659,1.9173 6.2752,1.5223 6.359,1.1212 6.4174,0.7157 6.4498,0.3073 6.4563,-0.1025 6.4369,-0.5117 6.3914,-0.919 6.3203,-1.3224 6.2236,-1.7207 6.102,-2.1119 5.9558,-2.4947 5.7856,-2.8674 5.592,-3.2286 5.3761,-3.5767 5.1383,-3.9105 4.88,-4.2285 4.602,-4.5296 4.3054,-4.8122 3.9915,-5.0757 3.6616,-5.3186 3.3169,-5.5401 2.9589,-5.7394 2.5888,-5.9154 2.2085,-6.0678 1.8192,-6.1955 1.4226,-6.2985 1.0202,-6.3761 0.6138,-6.4279 0.2049,-6.4539"
         style="fill:none;fill-rule:evenodd;stroke:#ffff00"
         id="path299"
         inkscape:connector-curvature="0" />
    </g>
  </g>
</svg>
