<?xml version="1.0" encoding="UTF-8" standalone="no"?>
<svg
   xmlns:dc="http://purl.org/dc/elements/1.1/"
   xmlns:cc="http://creativecommons.org/ns#"
   xmlns:rdf="http://www.w3.org/1999/02/22-rdf-syntax-ns#"
   xmlns:svg="http://www.w3.org/2000/svg"
   xmlns="http://www.w3.org/2000/svg"
   xmlns:sodipodi="http://sodipodi.sourceforge.net/DTD/sodipodi-0.dtd"
   xmlns:inkscape="http://www.inkscape.org/namespaces/inkscape"
   style="font-style:normal;font-weight:normal;font-size:12px;font-family:Dialog;color-interpolation:auto;fill:#000000;fill-opacity:1;stroke:#000000;stroke-width:1;stroke-linecap:square;stroke-linejoin:miter;stroke-miterlimit:10;stroke-dasharray:none;stroke-dashoffset:0;stroke-opacity:1;color-rendering:auto;image-rendering:auto;shape-rendering:auto;text-rendering:auto"
   width="480.02051"
   height="315.4646"
   version="1.1"
   id="svg742"
   sodipodi:docname="epidemic.svg"
   inkscape:version="0.92.3 (2405546, 2018-03-11)">
  <metadata
     id="metadata746">
    <rdf:RDF>
      <cc:Work
         rdf:about="">
        <dc:format>image/svg+xml</dc:format>
        <dc:type
           rdf:resource="http://purl.org/dc/dcmitype/StillImage" />
        <dc:title></dc:title>
      </cc:Work>
    </rdf:RDF>
  </metadata>
  <sodipodi:namedview
     pagecolor="#ffffff"
     bordercolor="#666666"
     borderopacity="1"
     objecttolerance="10"
     gridtolerance="10"
     guidetolerance="10"
     inkscape:pageopacity="0"
     inkscape:pageshadow="2"
     inkscape:window-width="1069"
     inkscape:window-height="669"
     id="namedview744"
     showgrid="false"
     inkscape:zoom="0.715"
     inkscape:cx="481.3935"
     inkscape:cy="126.6559"
     inkscape:window-x="466"
     inkscape:window-y="55"
     inkscape:window-maximized="0"
     inkscape:current-layer="g740"
     fit-margin-top="12"
     fit-margin-left="12"
     fit-margin-right="12"
     fit-margin-bottom="12" />
  <!--Generated by the Batik Graphics2D SVG Generator-->
  <defs
     id="genericDefs" />
  <g
     id="g740"
     transform="translate(-21.6979,14.9594)">
    <defs
       id="defs1">
      <clipPath
         clipPathUnits="userSpaceOnUse"
         id="clipPath1">
        <path
           d="M 0,0 H 533 V 300 H 0 Z"
           id="path380"
           inkscape:connector-curvature="0" />
      </clipPath>
    </defs>
    <g
       style="fill:#ffffff;stroke:#ffffff"
       id="g386" />
    <g
       style="color-interpolation:linearRGB;fill:#262626;stroke:#262626;stroke-width:0.83329999;stroke-linejoin:round;color-rendering:optimizeQuality;image-rendering:optimizeQuality;text-rendering:geometricPrecision"
       id="g406">
      <line
         y2="267"
         style="fill:none"
         x1="69"
         x2="483"
         y1="267"
         id="line392" />
      <line
         y2="262.85999"
         style="fill:none"
         x1="69"
         x2="69"
         y1="267"
         id="line394" />
      <line
         y2="262.85999"
         style="fill:none"
         x1="151.8"
         x2="151.8"
         y1="267"
         id="line396" />
      <line
         y2="262.85999"
         style="fill:none"
         x1="234.60001"
         x2="234.60001"
         y1="267"
         id="line398" />
      <line
         y2="262.85999"
         style="fill:none"
         x1="317.39999"
         x2="317.39999"
         y1="267"
         id="line400" />
      <line
         y2="262.85999"
         style="fill:none"
         x1="400.20001"
         x2="400.20001"
         y1="267"
         id="line402" />
      <line
         y2="262.85999"
         style="fill:none"
         x1="483"
         x2="483"
         y1="267"
         id="line404" />
    </g>
    <g
       transform="translate(69,273.3333)"
       style="font-weight:bold;font-size:15px;font-family:Euclid;color-interpolation:linearRGB;fill:#262626;stroke:#262626;color-rendering:optimizeQuality;image-rendering:optimizeQuality;text-rendering:geometricPrecision"
       id="g410">
      <path
         style="stroke:none"
         d="m 2.8906,10.2344 q 0,-1.0156 -0.125,-2.0078 Q 2.6406,7.2344 2.125,6.3906 1.75,5.7812 1.1016,5.4688 0.4531,5.1562 -0.2656,5.1562 q -0.7188,0 -1.3672,0.3126 -0.6484,0.3124 -1.0234,0.9218 -0.5157,0.8438 -0.6407,1.836 -0.125,0.9922 -0.125,2.0078 0,0.9844 0.125,1.9453 0.125,0.9609 0.6407,1.8047 0.3906,0.5937 1.0312,0.8906 0.6406,0.2969 1.3594,0.2969 0.7187,0 1.3594,-0.2969 0.6406,-0.2969 1.0312,-0.8906 0.5156,-0.8438 0.6406,-1.8047 0.125,-0.9609 0.125,-1.9453 z M 0.9688,9.9688 q 0,0.4531 0,1.0156 0,0.5468 -0.0157,1.0625 -0.0156,0.5156 -0.0312,0.9297 -0.0157,0.414 -0.0625,0.5859 -0.125,0.4375 -0.4063,0.75 -0.2812,0.3125 -0.7187,0.3125 -0.4375,0 -0.7188,-0.3125 Q -1.2656,14 -1.3906,13.5625 -1.4375,13.3906 -1.4531,12.9766 -1.4688,12.5625 -1.4844,12.0469 -1.5,11.5312 -1.5,10.9844 q 0,-0.5625 0,-1.0156 0,-0.4063 0,-0.9063 0,-0.5156 0.0078,-0.9844 0.0078,-0.4687 0.0313,-0.8515 0.0234,-0.3828 0.0703,-0.5391 0.125,-0.4063 0.4218,-0.6875 0.2969,-0.2812 0.7032,-0.2812 0.4062,0 0.7031,0.2812 0.2969,0.2812 0.4219,0.6875 0.0468,0.1563 0.0703,0.5391 0.0234,0.3828 0.0312,0.8515 0.0079,0.4688 0.0079,0.9844 0,0.5 0,0.9063 z"
         id="path408"
         inkscape:connector-curvature="0" />
    </g>
    <g
       transform="translate(151.8,273.3333)"
       style="font-weight:bold;font-size:15px;font-family:Euclid;color-interpolation:linearRGB;fill:#262626;stroke:#262626;color-rendering:optimizeQuality;image-rendering:optimizeQuality;text-rendering:geometricPrecision"
       id="g414">
      <path
         style="stroke:none"
         d="m 2.7188,11.9844 q 0,-0.6094 -0.1954,-1.2032 Q 2.3281,10.1875 1.8906,9.7188 1.4531,9.2656 0.8828,9.0625 0.3125,8.8594 -0.2969,8.8594 q -0.9375,0 -1.5625,0.4687 V 7.4219 Q -1.4375,7.5 -1.0938,7.5 -0.0781,7.5 0.7812,6.9922 1.6406,6.4844 2.125,5.5938 2.1406,5.5625 2.1406,5.5 2.1406,5.4375 2.1484,5.3906 2.1562,5.3438 2.125,5.2812 2.0781,5.1562 1.9375,5.1562 q -0.0313,0 -0.0937,0.0313 -1.0157,0.4687 -2.0938,0.4687 -1.0938,0 -2.0938,-0.4687 -0.0624,-0.0313 -0.0937,-0.0313 -0.1406,0 -0.2031,0.125 -0.0156,0.0626 -0.0156,0.1563 v 4.7187 q 0,0.1094 0.0781,0.1876 0.0781,0.0781 0.2031,0.0781 h 0.1094 q 0.1562,0 0.2344,-0.125 0.5781,-0.8907 1.7343,-0.8907 0.25,0 0.4453,0.1719 0.1954,0.1719 0.3204,0.4375 0.0468,0.125 0.0781,0.3438 0.0312,0.2187 0.039,0.4844 0.0079,0.2656 0.0157,0.5624 0.0078,0.2969 0.0078,0.5782 0,0.5625 -0.0391,1.0859 -0.0391,0.5235 -0.2265,0.8359 -0.1563,0.2969 -0.461,0.4532 -0.3047,0.1562 -0.6484,0.1562 -0.4844,0 -0.8828,-0.25 -0.3985,-0.25 -0.6485,-0.6875 0.3907,0.0157 0.7266,-0.2343 0.3359,-0.25 0.3359,-0.7813 0,-0.4844 -0.3203,-0.7422 -0.3203,-0.2578 -0.6953,-0.2578 -0.375,0 -0.6875,0.2578 -0.3125,0.2578 -0.3125,0.7422 0,0.5313 0.1953,1.0078 0.1953,0.4766 0.5313,0.8281 0.3359,0.3516 0.789,0.5625 0.4532,0.211 0.9688,0.211 0.6875,0 1.3437,-0.1953 Q 1.2344,14.7812 1.7656,14.2969 2.25,13.8594 2.4844,13.25 2.7188,12.6406 2.7188,11.9844 Z"
         id="path412"
         inkscape:connector-curvature="0" />
    </g>
    <g
       transform="translate(234.6,273.3333)"
       style="font-weight:bold;font-size:15px;font-family:Euclid;color-interpolation:linearRGB;fill:#262626;stroke:#262626;color-rendering:optimizeQuality;image-rendering:optimizeQuality;text-rendering:geometricPrecision"
       id="g418">
      <path
         style="stroke:none"
         d="M -1.0625,15 V 14.2969 H -2.7969 V 5.4375 q 0,-0.1094 -0.0703,-0.1953 -0.0703,-0.086 -0.1953,-0.086 H -3.375 Q -3.9844,5.75 -4.7969,5.9453 -5.6094,6.1406 -6.4688,6.1406 v 0.7032 q 0.4844,0 0.961,-0.0547 0.4766,-0.0547 0.9297,-0.211 v 7.7188 H -6.25 V 15 q 1.2656,-0.0469 2.5625,-0.0469 1.3125,0 2.625,0.0469 z m 7.9528,-4.7656 q 0,-1.0156 -0.125,-2.0078 Q 6.6403,7.2344 6.1247,6.3906 5.7497,5.7812 5.1013,5.4688 4.4528,5.1562 3.7341,5.1562 q -0.7188,0 -1.3672,0.3126 -0.6485,0.3124 -1.0235,0.9218 -0.5156,0.8438 -0.6406,1.836 -0.125,0.9922 -0.125,2.0078 0,0.9844 0.125,1.9453 0.125,0.9609 0.6406,1.8047 0.3907,0.5937 1.0313,0.8906 0.6406,0.2969 1.3594,0.2969 0.7187,0 1.3593,-0.2969 0.6407,-0.2969 1.0313,-0.8906 0.5156,-0.8438 0.6406,-1.8047 0.125,-0.9609 0.125,-1.9453 z M 4.9684,9.9688 q 0,0.4531 0,1.0156 0,0.5468 -0.0156,1.0625 -0.0156,0.5156 -0.0312,0.9297 -0.0157,0.414 -0.0625,0.5859 Q 4.7341,14 4.4528,14.3125 4.1716,14.625 3.7341,14.625 3.2966,14.625 3.0153,14.3125 2.7341,14 2.6091,13.5625 2.5622,13.3906 2.5466,12.9766 2.5309,12.5625 2.5153,12.0469 2.4997,11.5312 2.4997,10.9844 q 0,-0.5625 0,-1.0156 0,-0.4063 0,-0.9063 0,-0.5156 0.0078,-0.9844 Q 2.5153,7.6094 2.5388,7.2266 2.5622,6.8438 2.6091,6.6875 2.7341,6.2812 3.0309,6 3.3278,5.7188 3.7341,5.7188 q 0.4062,0 0.7031,0.2812 0.2969,0.2812 0.4219,0.6875 0.0468,0.1563 0.0703,0.5391 0.0234,0.3828 0.0312,0.8515 0.0078,0.4688 0.0078,0.9844 0,0.5 0,0.9063 z"
         id="path416"
         inkscape:connector-curvature="0" />
    </g>
    <g
       transform="translate(317.4,273.3333)"
       style="font-weight:bold;font-size:15px;font-family:Euclid;color-interpolation:linearRGB;fill:#262626;stroke:#262626;color-rendering:optimizeQuality;image-rendering:optimizeQuality;text-rendering:geometricPrecision"
       id="g422">
      <path
         style="stroke:none"
         d="M -1.0625,15 V 14.2969 H -2.7969 V 5.4375 q 0,-0.1094 -0.0703,-0.1953 -0.0703,-0.086 -0.1953,-0.086 H -3.375 Q -3.9844,5.75 -4.7969,5.9453 -5.6094,6.1406 -6.4688,6.1406 v 0.7032 q 0.4844,0 0.961,-0.0547 0.4766,-0.0547 0.9297,-0.211 v 7.7188 H -6.25 V 15 q 1.2656,-0.0469 2.5625,-0.0469 1.3125,0 2.625,0.0469 z m 7.7809,-3.0156 q 0,-0.6094 -0.1953,-1.2032 Q 6.3278,10.1875 5.8903,9.7188 5.4528,9.2656 4.8825,9.0625 4.3122,8.8594 3.7028,8.8594 q -0.9375,0 -1.5625,0.4687 V 7.4219 Q 2.5622,7.5 2.9059,7.5 3.9216,7.5 4.7809,6.9922 5.6403,6.4844 6.1247,5.5938 6.1403,5.5625 6.1403,5.5 6.1403,5.4375 6.1481,5.3906 6.1559,5.3438 6.1247,5.2812 6.0778,5.1562 5.9372,5.1562 5.9059,5.1562 5.8434,5.1875 4.8278,5.6562 3.7497,5.6562 2.6559,5.6562 1.6559,5.1875 1.5934,5.1562 1.5622,5.1562 q -0.1406,0 -0.2031,0.125 -0.0157,0.0626 -0.0157,0.1563 v 4.7187 q 0,0.1094 0.0782,0.1876 0.0781,0.0781 0.2031,0.0781 h 0.1094 q 0.1562,0 0.2343,-0.125 0.5782,-0.8907 1.7344,-0.8907 0.25,0 0.4453,0.1719 0.1953,0.1719 0.3203,0.4375 0.0469,0.125 0.0782,0.3438 0.0312,0.2187 0.039,0.4844 0.0078,0.2656 0.0157,0.5624 0.0078,0.2969 0.0078,0.5782 0,0.5625 -0.0391,1.0859 -0.0391,0.5235 -0.2266,0.8359 -0.1562,0.2969 -0.4609,0.4532 -0.3047,0.1562 -0.6484,0.1562 -0.4844,0 -0.8828,-0.25 -0.3985,-0.25 -0.6485,-0.6875 0.3906,0.0157 0.7266,-0.2343 0.3359,-0.25 0.3359,-0.7813 0,-0.4844 -0.3203,-0.7422 -0.3203,-0.2578 -0.6953,-0.2578 -0.375,0 -0.6875,0.2578 -0.3125,0.2578 -0.3125,0.7422 0,0.5313 0.1953,1.0078 0.1953,0.4766 0.5313,0.8281 0.3359,0.3516 0.789,0.5625 0.4531,0.211 0.9688,0.211 0.6875,0 1.3437,-0.1953 0.6563,-0.1954 1.1875,-0.6797 0.4844,-0.4375 0.7188,-1.0469 0.2343,-0.6094 0.2343,-1.2656 z"
         id="path420"
         inkscape:connector-curvature="0" />
    </g>
    <g
       transform="translate(400.2,273.3333)"
       style="font-weight:bold;font-size:15px;font-family:Euclid;color-interpolation:linearRGB;fill:#262626;stroke:#262626;color-rendering:optimizeQuality;image-rendering:optimizeQuality;text-rendering:geometricPrecision"
       id="g426">
      <path
         style="stroke:none"
         d="m -0.7812,11.6719 h -0.7032 q -0.0312,0.1719 -0.0625,0.3828 -0.0312,0.2109 -0.0703,0.3984 -0.039,0.1875 -0.0937,0.3438 -0.0547,0.1562 -0.1172,0.2343 -0.0313,0.0313 -0.2891,0.0547 -0.2578,0.0235 -0.6172,0.0313 -0.3594,0.0078 -0.7656,0.0078 -0.4062,0 -0.7188,0 h -0.7656 l 1.4532,-1.375 q 0.3437,-0.3125 0.8124,-0.6953 0.4688,-0.3828 0.8985,-0.8438 0.4297,-0.4609 0.7344,-1 0.3047,-0.539 0.3047,-1.1797 0,-0.6406 -0.2344,-1.164 Q -1.25,6.3438 -1.6719,5.9609 -2.0938,5.5781 -2.6797,5.3672 -3.2656,5.1562 -3.9688,5.1562 -4.5,5.1562 -5,5.3203 -5.5,5.4844 -5.8906,5.7969 -6.2812,6.1094 -6.5156,6.5312 -6.75,6.9531 -6.75,7.4844 q 0,0.5468 0.3359,0.8047 0.336,0.2578 0.7266,0.2578 0.4063,0 0.7422,-0.2578 0.3359,-0.2579 0.3359,-0.8047 0,-0.5 -0.2812,-0.7656 -0.2813,-0.2657 -0.6406,-0.3126 0.4843,-0.5312 1.25,-0.5312 0.375,0 0.6484,0.1719 0.2734,0.1719 0.4453,0.4687 0.1719,0.2969 0.2578,0.6875 0.0859,0.3907 0.0859,0.8281 0,0.4844 -0.1406,0.9532 -0.1406,0.4687 -0.3594,0.9062 -0.2187,0.4375 -0.5156,0.8672 -0.2968,0.4297 -0.625,0.836 L -6.7031,14.375 Q -6.75,14.4375 -6.75,14.5 V 15 h 5.5156 z m 7.6715,-1.4375 q 0,-1.0156 -0.125,-2.0078 Q 6.6403,7.2344 6.1247,6.3906 5.7497,5.7812 5.1013,5.4688 4.4528,5.1562 3.7341,5.1562 q -0.7188,0 -1.3672,0.3126 -0.6485,0.3124 -1.0235,0.9218 -0.5156,0.8438 -0.6406,1.836 -0.125,0.9922 -0.125,2.0078 0,0.9844 0.125,1.9453 0.125,0.9609 0.6406,1.8047 0.3907,0.5937 1.0313,0.8906 0.6406,0.2969 1.3594,0.2969 0.7187,0 1.3593,-0.2969 0.6407,-0.2969 1.0313,-0.8906 0.5156,-0.8438 0.6406,-1.8047 0.125,-0.9609 0.125,-1.9453 z M 4.9684,9.9688 q 0,0.4531 0,1.0156 0,0.5468 -0.0156,1.0625 -0.0156,0.5156 -0.0312,0.9297 -0.0157,0.414 -0.0625,0.5859 Q 4.7341,14 4.4528,14.3125 4.1716,14.625 3.7341,14.625 3.2966,14.625 3.0153,14.3125 2.7341,14 2.6091,13.5625 2.5622,13.3906 2.5466,12.9766 2.5309,12.5625 2.5153,12.0469 2.4997,11.5312 2.4997,10.9844 q 0,-0.5625 0,-1.0156 0,-0.4063 0,-0.9063 0,-0.5156 0.0078,-0.9844 Q 2.5153,7.6094 2.5388,7.2266 2.5622,6.8438 2.6091,6.6875 2.7341,6.2812 3.0309,6 3.3278,5.7188 3.7341,5.7188 q 0.4062,0 0.7031,0.2812 0.2969,0.2812 0.4219,0.6875 0.0468,0.1563 0.0703,0.5391 0.0234,0.3828 0.0312,0.8515 0.0078,0.4688 0.0078,0.9844 0,0.5 0,0.9063 z"
         id="path424"
         inkscape:connector-curvature="0" />
    </g>
    <g
       transform="translate(483,273.3333)"
       style="font-weight:bold;font-size:15px;font-family:Euclid;color-interpolation:linearRGB;fill:#262626;stroke:#262626;color-rendering:optimizeQuality;image-rendering:optimizeQuality;text-rendering:geometricPrecision"
       id="g430">
      <path
         style="stroke:none"
         d="m -0.7812,11.6719 h -0.7032 q -0.0312,0.1719 -0.0625,0.3828 -0.0312,0.2109 -0.0703,0.3984 -0.039,0.1875 -0.0937,0.3438 -0.0547,0.1562 -0.1172,0.2343 -0.0313,0.0313 -0.2891,0.0547 -0.2578,0.0235 -0.6172,0.0313 -0.3594,0.0078 -0.7656,0.0078 -0.4062,0 -0.7188,0 h -0.7656 l 1.4532,-1.375 q 0.3437,-0.3125 0.8124,-0.6953 0.4688,-0.3828 0.8985,-0.8438 0.4297,-0.4609 0.7344,-1 0.3047,-0.539 0.3047,-1.1797 0,-0.6406 -0.2344,-1.164 Q -1.25,6.3438 -1.6719,5.9609 -2.0938,5.5781 -2.6797,5.3672 -3.2656,5.1562 -3.9688,5.1562 -4.5,5.1562 -5,5.3203 -5.5,5.4844 -5.8906,5.7969 -6.2812,6.1094 -6.5156,6.5312 -6.75,6.9531 -6.75,7.4844 q 0,0.5468 0.3359,0.8047 0.336,0.2578 0.7266,0.2578 0.4063,0 0.7422,-0.2578 0.3359,-0.2579 0.3359,-0.8047 0,-0.5 -0.2812,-0.7656 -0.2813,-0.2657 -0.6406,-0.3126 0.4843,-0.5312 1.25,-0.5312 0.375,0 0.6484,0.1719 0.2734,0.1719 0.4453,0.4687 0.1719,0.2969 0.2578,0.6875 0.0859,0.3907 0.0859,0.8281 0,0.4844 -0.1406,0.9532 -0.1406,0.4687 -0.3594,0.9062 -0.2187,0.4375 -0.5156,0.8672 -0.2968,0.4297 -0.625,0.836 L -6.7031,14.375 Q -6.75,14.4375 -6.75,14.5 V 15 h 5.5156 z m 7.4996,0.3125 q 0,-0.6094 -0.1953,-1.2032 Q 6.3278,10.1875 5.8903,9.7188 5.4528,9.2656 4.8825,9.0625 4.3122,8.8594 3.7028,8.8594 q -0.9375,0 -1.5625,0.4687 V 7.4219 Q 2.5622,7.5 2.9059,7.5 3.9216,7.5 4.7809,6.9922 5.6403,6.4844 6.1247,5.5938 6.1403,5.5625 6.1403,5.5 6.1403,5.4375 6.1481,5.3906 6.1559,5.3438 6.1247,5.2812 6.0778,5.1562 5.9372,5.1562 5.9059,5.1562 5.8434,5.1875 4.8278,5.6562 3.7497,5.6562 2.6559,5.6562 1.6559,5.1875 1.5934,5.1562 1.5622,5.1562 q -0.1406,0 -0.2031,0.125 -0.0157,0.0626 -0.0157,0.1563 v 4.7187 q 0,0.1094 0.0782,0.1876 0.0781,0.0781 0.2031,0.0781 h 0.1094 q 0.1562,0 0.2343,-0.125 0.5782,-0.8907 1.7344,-0.8907 0.25,0 0.4453,0.1719 0.1953,0.1719 0.3203,0.4375 0.0469,0.125 0.0782,0.3438 0.0312,0.2187 0.039,0.4844 0.0078,0.2656 0.0157,0.5624 0.0078,0.2969 0.0078,0.5782 0,0.5625 -0.0391,1.0859 -0.0391,0.5235 -0.2266,0.8359 -0.1562,0.2969 -0.4609,0.4532 -0.3047,0.1562 -0.6484,0.1562 -0.4844,0 -0.8828,-0.25 -0.3985,-0.25 -0.6485,-0.6875 0.3906,0.0157 0.7266,-0.2343 0.3359,-0.25 0.3359,-0.7813 0,-0.4844 -0.3203,-0.7422 -0.3203,-0.2578 -0.6953,-0.2578 -0.375,0 -0.6875,0.2578 -0.3125,0.2578 -0.3125,0.7422 0,0.5313 0.1953,1.0078 0.1953,0.4766 0.5313,0.8281 0.3359,0.3516 0.789,0.5625 0.4531,0.211 0.9688,0.211 0.6875,0 1.3437,-0.1953 0.6563,-0.1954 1.1875,-0.6797 0.4844,-0.4375 0.7188,-1.0469 0.2343,-0.6094 0.2343,-1.2656 z"
         id="path428"
         inkscape:connector-curvature="0" />
    </g>
    <g
       style="color-interpolation:linearRGB;fill:#262626;stroke:#262626;stroke-width:0.83329999;stroke-linejoin:round;color-rendering:optimizeQuality;image-rendering:optimizeQuality;text-rendering:geometricPrecision"
       id="g446">
      <line
         y2="27"
         style="fill:none"
         x1="69"
         x2="69"
         y1="267"
         id="line432" />
      <line
         y2="267"
         style="fill:none"
         x1="69"
         x2="73.139999"
         y1="267"
         id="line434" />
      <line
         y2="219"
         style="fill:none"
         x1="69"
         x2="73.139999"
         y1="219"
         id="line436" />
      <line
         y2="171"
         style="fill:none"
         x1="69"
         x2="73.139999"
         y1="171"
         id="line438" />
      <line
         y2="123"
         style="fill:none"
         x1="69"
         x2="73.139999"
         y1="123"
         id="line440" />
      <line
         y2="75"
         style="fill:none"
         x1="69"
         x2="73.139999"
         y1="75"
         id="line442" />
      <line
         y2="27"
         style="fill:none"
         x1="69"
         x2="73.139999"
         y1="27"
         id="line444" />
    </g>
    <g
       transform="translate(62.6667,267)"
       style="font-weight:bold;font-size:15px;font-family:Euclid;color-interpolation:linearRGB;fill:#262626;stroke:#262626;color-rendering:optimizeQuality;image-rendering:optimizeQuality;text-rendering:geometricPrecision"
       id="g450">
      <path
         style="stroke:none"
         d="m -1.1094,1.2344 q 0,-1.0156 -0.125,-2.0078 -0.125,-0.9922 -0.6406,-1.836 -0.375,-0.6094 -1.0234,-0.9218 -0.6485,-0.3126 -1.3672,-0.3126 -0.7188,0 -1.3672,0.3126 -0.6484,0.3124 -1.0234,0.9218 -0.5157,0.8438 -0.6407,1.836 -0.125,0.9922 -0.125,2.0078 0,0.9844 0.125,1.9453 0.125,0.9609 0.6407,1.8047 0.3906,0.5937 1.0312,0.8906 0.6406,0.2969 1.3594,0.2969 0.7187,0 1.3594,-0.2969 0.6406,-0.2969 1.0312,-0.8906 0.5156,-0.8438 0.6406,-1.8047 0.125,-0.9609 0.125,-1.9453 z M -3.0312,0.9688 q 0,0.4531 0,1.0156 0,0.5468 -0.0157,1.0625 -0.0156,0.5156 -0.0312,0.9297 -0.0157,0.414 -0.0625,0.5859 Q -3.2656,5 -3.5469,5.3125 -3.8281,5.625 -4.2656,5.625 -4.7031,5.625 -4.9844,5.3125 -5.2656,5 -5.3906,4.5625 -5.4375,4.3906 -5.4531,3.9766 -5.4688,3.5625 -5.4844,3.0469 -5.5,2.5312 -5.5,1.9844 q 0,-0.5625 0,-1.0156 0,-0.4063 0,-0.9063 0,-0.5156 0.0078,-0.9844 0.0078,-0.4687 0.0313,-0.8515 0.0234,-0.3828 0.0703,-0.5391 0.125,-0.4063 0.4218,-0.6875 0.2969,-0.2812 0.7032,-0.2812 0.4062,0 0.7031,0.2812 0.2969,0.2812 0.4219,0.6875 0.0468,0.1563 0.0703,0.5391 0.0234,0.3828 0.0312,0.8515 0.0079,0.4688 0.0079,0.9844 0,0.5 0,0.9063 z"
         id="path448"
         inkscape:connector-curvature="0" />
    </g>
    <g
       transform="translate(62.6667,219)"
       style="font-weight:bold;font-size:15px;font-family:Euclid;color-interpolation:linearRGB;fill:#262626;stroke:#262626;color-rendering:optimizeQuality;image-rendering:optimizeQuality;text-rendering:geometricPrecision"
       id="g454">
      <path
         style="stroke:none"
         d="m -16.2812,2.6719 h -0.7032 q -0.0312,0.1719 -0.0625,0.3828 -0.0312,0.2109 -0.0703,0.3984 -0.039,0.1875 -0.0937,0.3438 -0.0547,0.1562 -0.1172,0.2343 -0.0313,0.0313 -0.2891,0.0547 -0.2578,0.0235 -0.6172,0.0313 Q -18.5938,4.125 -19,4.125 q -0.4062,0 -0.7188,0 h -0.7656 l 1.4532,-1.375 q 0.3437,-0.3125 0.8124,-0.6953 0.4688,-0.3828 0.8985,-0.8438 0.4297,-0.4609 0.7344,-1 0.3047,-0.539 0.3047,-1.1797 0,-0.6406 -0.2344,-1.164 -0.2344,-0.5234 -0.6563,-0.9063 -0.4219,-0.3828 -1.0078,-0.5937 -0.5859,-0.211 -1.2891,-0.211 -0.5312,0 -1.0312,0.1641 -0.5,0.1641 -0.8906,0.4766 -0.3906,0.3125 -0.625,0.7343 -0.2344,0.4219 -0.2344,0.9532 0,0.5468 0.3359,0.8047 0.336,0.2578 0.7266,0.2578 0.4063,0 0.7422,-0.2578 0.3359,-0.2579 0.3359,-0.8047 0,-0.5 -0.2812,-0.7656 -0.2813,-0.2657 -0.6406,-0.3126 0.4843,-0.5312 1.25,-0.5312 0.375,0 0.6484,0.1719 0.2734,0.1719 0.4453,0.4687 0.1719,0.2969 0.2578,0.6875 0.0859,0.3907 0.0859,0.8281 0,0.4844 -0.1406,0.9532 -0.1406,0.4687 -0.3594,0.9062 -0.2187,0.4375 -0.5156,0.8672 -0.2968,0.4297 -0.625,0.836 L -22.2031,5.375 Q -22.25,5.4375 -22.25,5.5 V 6 h 5.5156 z m 7.6715,-1.4375 q 0,-1.0156 -0.125,-2.0078 -0.125,-0.9922 -0.6406,-1.836 -0.375,-0.6094 -1.0234,-0.9218 -0.6485,-0.3126 -1.3672,-0.3126 -0.7188,0 -1.3672,0.3126 -0.6485,0.3124 -1.0235,0.9218 -0.5156,0.8438 -0.6406,1.836 -0.125,0.9922 -0.125,2.0078 0,0.9844 0.125,1.9453 0.125,0.9609 0.6406,1.8047 0.3907,0.5937 1.0313,0.8906 0.6406,0.2969 1.3594,0.2969 0.7187,0 1.3593,-0.2969 0.6407,-0.2969 1.0313,-0.8906 0.5156,-0.8438 0.6406,-1.8047 0.125,-0.9609 0.125,-1.9453 z m -1.9219,-0.2656 q 0,0.4531 0,1.0156 0,0.5468 -0.0156,1.0625 -0.0156,0.5156 -0.0312,0.9297 -0.0157,0.414 -0.0625,0.5859 -0.125,0.4375 -0.4063,0.75 -0.2812,0.3125 -0.7187,0.3125 -0.4375,0 -0.7188,-0.3125 -0.2812,-0.3125 -0.4062,-0.75 -0.0469,-0.1719 -0.0625,-0.5859 -0.0157,-0.4141 -0.0313,-0.9297 -0.0156,-0.5157 -0.0156,-1.0625 0,-0.5625 0,-1.0156 0,-0.4063 0,-0.9063 0,-0.5156 0.0078,-0.9844 0.0078,-0.4687 0.0313,-0.8515 0.0234,-0.3828 0.0703,-0.5391 0.125,-0.4063 0.4218,-0.6875 0.2969,-0.2812 0.7032,-0.2812 0.4062,0 0.7031,0.2812 0.2969,0.2812 0.4219,0.6875 0.0468,0.1563 0.0703,0.5391 0.0234,0.3828 0.0312,0.8515 0.0078,0.4688 0.0078,0.9844 0,0.5 0,0.9063 z M -1.11,1.2344 q 0,-1.0156 -0.125,-2.0078 -0.125,-0.9922 -0.6406,-1.836 -0.375,-0.6094 -1.0234,-0.9218 -0.6485,-0.3126 -1.3672,-0.3126 -0.7188,0 -1.3672,0.3126 -0.6485,0.3124 -1.0235,0.9218 -0.5156,0.8438 -0.6406,1.836 -0.125,0.9922 -0.125,2.0078 0,0.9844 0.125,1.9453 0.125,0.9609 0.6406,1.8047 0.3907,0.5937 1.0313,0.8906 0.6406,0.2969 1.3594,0.2969 0.7187,0 1.3593,-0.2969 Q -2.2662,5.5781 -1.8756,4.9844 -1.36,4.1406 -1.235,3.1797 -1.11,2.2188 -1.11,1.2344 Z M -3.0319,0.9688 q 0,0.4531 0,1.0156 0,0.5468 -0.0156,1.0625 -0.0156,0.5156 -0.0312,0.9297 -0.0157,0.414 -0.0625,0.5859 Q -3.2662,5 -3.5475,5.3125 -3.8287,5.625 -4.2662,5.625 -4.7037,5.625 -4.985,5.3125 -5.2662,5 -5.3912,4.5625 -5.4381,4.3906 -5.4537,3.9766 -5.4694,3.5625 -5.485,3.0469 -5.5006,2.5312 -5.5006,1.9844 q 0,-0.5625 0,-1.0156 0,-0.4063 0,-0.9063 0,-0.5156 0.0078,-0.9844 0.0078,-0.4687 0.0313,-0.8515 0.0234,-0.3828 0.0703,-0.5391 0.125,-0.4063 0.4218,-0.6875 0.2969,-0.2812 0.7032,-0.2812 0.4062,0 0.7031,0.2812 0.2969,0.2812 0.4219,0.6875 0.0468,0.1563 0.0703,0.5391 0.0234,0.3828 0.0312,0.8515 0.0078,0.4688 0.0078,0.9844 0,0.5 0,0.9063 z"
         id="path452"
         inkscape:connector-curvature="0" />
    </g>
    <g
       transform="translate(62.6667,171)"
       style="font-weight:bold;font-size:15px;font-family:Euclid;color-interpolation:linearRGB;fill:#262626;stroke:#262626;color-rendering:optimizeQuality;image-rendering:optimizeQuality;text-rendering:geometricPrecision"
       id="g458">
      <path
         style="stroke:none"
         d="M -15.9531,6 V 5.2969 h -1.1407 V 3.6406 h 1.1407 V 2.9375 h -1.1407 v -6.5156 q 0,-0.125 -0.0703,-0.2031 -0.0703,-0.0782 -0.1953,-0.0782 h -0.2968 q -0.1719,0 -0.2657,0.1406 l -4.6562,6.6563 v 0.7031 h 3.6093 v 1.6563 h -1.4374 V 6 q 1.1874,-0.0469 2.3906,-0.0469 1.0312,0 2.0625,0.0469 z m -2.8281,-3.0625 h -3.0626 l 3.0626,-4.3437 z M -8.6097,1.2344 q 0,-1.0156 -0.125,-2.0078 -0.125,-0.9922 -0.6406,-1.836 -0.375,-0.6094 -1.0234,-0.9218 -0.6485,-0.3126 -1.3672,-0.3126 -0.7188,0 -1.3672,0.3126 -0.6485,0.3124 -1.0235,0.9218 -0.5156,0.8438 -0.6406,1.836 -0.125,0.9922 -0.125,2.0078 0,0.9844 0.125,1.9453 0.125,0.9609 0.6406,1.8047 0.3907,0.5937 1.0313,0.8906 0.6406,0.2969 1.3594,0.2969 0.7187,0 1.3593,-0.2969 0.6407,-0.2969 1.0313,-0.8906 0.5156,-0.8438 0.6406,-1.8047 0.125,-0.9609 0.125,-1.9453 z m -1.9219,-0.2656 q 0,0.4531 0,1.0156 0,0.5468 -0.0156,1.0625 -0.0156,0.5156 -0.0312,0.9297 -0.0157,0.414 -0.0625,0.5859 -0.125,0.4375 -0.4063,0.75 -0.2812,0.3125 -0.7187,0.3125 -0.4375,0 -0.7188,-0.3125 -0.2812,-0.3125 -0.4062,-0.75 -0.0469,-0.1719 -0.0625,-0.5859 -0.0157,-0.4141 -0.0313,-0.9297 -0.0156,-0.5157 -0.0156,-1.0625 0,-0.5625 0,-1.0156 0,-0.4063 0,-0.9063 0,-0.5156 0.0078,-0.9844 0.0078,-0.4687 0.0313,-0.8515 0.0234,-0.3828 0.0703,-0.5391 0.125,-0.4063 0.4218,-0.6875 0.2969,-0.2812 0.7032,-0.2812 0.4062,0 0.7031,0.2812 0.2969,0.2812 0.4219,0.6875 0.0468,0.1563 0.0703,0.5391 0.0234,0.3828 0.0312,0.8515 0.0078,0.4688 0.0078,0.9844 0,0.5 0,0.9063 z M -1.11,1.2344 q 0,-1.0156 -0.125,-2.0078 -0.125,-0.9922 -0.6406,-1.836 -0.375,-0.6094 -1.0234,-0.9218 -0.6485,-0.3126 -1.3672,-0.3126 -0.7188,0 -1.3672,0.3126 -0.6485,0.3124 -1.0235,0.9218 -0.5156,0.8438 -0.6406,1.836 -0.125,0.9922 -0.125,2.0078 0,0.9844 0.125,1.9453 0.125,0.9609 0.6406,1.8047 0.3907,0.5937 1.0313,0.8906 0.6406,0.2969 1.3594,0.2969 0.7187,0 1.3593,-0.2969 Q -2.2662,5.5781 -1.8756,4.9844 -1.36,4.1406 -1.235,3.1797 -1.11,2.2188 -1.11,1.2344 Z M -3.0319,0.9688 q 0,0.4531 0,1.0156 0,0.5468 -0.0156,1.0625 -0.0156,0.5156 -0.0312,0.9297 -0.0157,0.414 -0.0625,0.5859 Q -3.2662,5 -3.5475,5.3125 -3.8287,5.625 -4.2662,5.625 -4.7037,5.625 -4.985,5.3125 -5.2662,5 -5.3912,4.5625 -5.4381,4.3906 -5.4537,3.9766 -5.4694,3.5625 -5.485,3.0469 -5.5006,2.5312 -5.5006,1.9844 q 0,-0.5625 0,-1.0156 0,-0.4063 0,-0.9063 0,-0.5156 0.0078,-0.9844 0.0078,-0.4687 0.0313,-0.8515 0.0234,-0.3828 0.0703,-0.5391 0.125,-0.4063 0.4218,-0.6875 0.2969,-0.2812 0.7032,-0.2812 0.4062,0 0.7031,0.2812 0.2969,0.2812 0.4219,0.6875 0.0468,0.1563 0.0703,0.5391 0.0234,0.3828 0.0312,0.8515 0.0078,0.4688 0.0078,0.9844 0,0.5 0,0.9063 z"
         id="path456"
         inkscape:connector-curvature="0" />
    </g>
    <g
       transform="translate(62.6667,123)"
       style="font-weight:bold;font-size:15px;font-family:Euclid;color-interpolation:linearRGB;fill:#262626;stroke:#262626;color-rendering:optimizeQuality;image-rendering:optimizeQuality;text-rendering:geometricPrecision"
       id="g462">
      <path
         style="stroke:none"
         d="m -16.1562,2.9219 q 0,-0.6875 -0.1563,-1.2344 -0.1563,-0.5469 -0.6406,-1.0781 -0.4688,-0.5 -0.9844,-0.6875 -0.5156,-0.1875 -1.1875,-0.1875 -0.4375,0 -0.7344,0.2031 -0.2968,0.2031 -0.4687,0.5313 0.0156,-0.7657 0.0703,-1.461 0.0547,-0.6953 0.2578,-1.1328 0.2188,-0.5 0.6328,-0.8125 0.4141,-0.3125 0.9297,-0.3125 0.5625,0 0.9063,0.3906 -0.3438,0.0313 -0.6016,0.2578 -0.2578,0.2266 -0.2578,0.6641 0,0.4844 0.289,0.7187 0.2891,0.2344 0.6328,0.2344 0.3594,0 0.6563,-0.2344 0.2969,-0.2343 0.2969,-0.7187 0,-0.875 -0.5235,-1.3906 -0.5234,-0.5157 -1.3984,-0.5157 -0.8437,0 -1.6016,0.3594 -0.7578,0.3594 -1.2734,1.0469 -0.6094,0.75 -0.8437,1.6875 -0.2344,0.9375 -0.2344,1.9062 0,0.9376 0.1328,1.8907 0.1328,0.9531 0.6328,1.8125 0.375,0.625 1.0078,0.9687 0.6328,0.3438 1.3516,0.3438 0.6875,0 1.2265,-0.1875 Q -17.5,5.7969 -17,5.2812 -16.4844,4.75 -16.3203,4.1875 -16.1562,3.625 -16.1562,2.9219 Z m -2.0469,0 q 0,0.3437 0,0.6562 0,0.3281 -0.0157,0.5938 -0.0156,0.2656 -0.0312,0.4609 -0.0156,0.1953 -0.0625,0.2734 -0.2813,0.6094 -0.9531,0.6094 -0.3438,0 -0.6094,-0.2734 -0.2656,-0.2734 -0.375,-0.6797 -0.0312,-0.1406 -0.0781,-0.5937 -0.0469,-0.4532 0,-1.0469 -0.0157,-0.5313 0.039,-1.0157 0.0547,-0.4843 0.1797,-0.8515 0.125,-0.3672 0.3594,-0.5781 0.2344,-0.211 0.5781,-0.211 0.625,0 0.8907,0.6406 0.0624,0.1407 0.0703,0.7266 0.0078,0.586 0.0078,1.2891 z m 9.5934,-1.6875 q 0,-1.0156 -0.125,-2.0078 -0.125,-0.9922 -0.6406,-1.836 -0.375,-0.6094 -1.0234,-0.9218 -0.6485,-0.3126 -1.3672,-0.3126 -0.7188,0 -1.3672,0.3126 -0.6485,0.3124 -1.0235,0.9218 -0.5156,0.8438 -0.6406,1.836 -0.125,0.9922 -0.125,2.0078 0,0.9844 0.125,1.9453 0.125,0.9609 0.6406,1.8047 0.3907,0.5937 1.0313,0.8906 0.6406,0.2969 1.3594,0.2969 0.7187,0 1.3593,-0.2969 0.6407,-0.2969 1.0313,-0.8906 0.5156,-0.8438 0.6406,-1.8047 0.125,-0.9609 0.125,-1.9453 z m -1.9219,-0.2656 q 0,0.4531 0,1.0156 0,0.5468 -0.0156,1.0625 -0.0156,0.5156 -0.0312,0.9297 -0.0157,0.414 -0.0625,0.5859 -0.125,0.4375 -0.4063,0.75 -0.2812,0.3125 -0.7187,0.3125 -0.4375,0 -0.7188,-0.3125 -0.2812,-0.3125 -0.4062,-0.75 -0.0469,-0.1719 -0.0625,-0.5859 -0.0157,-0.4141 -0.0313,-0.9297 -0.0156,-0.5157 -0.0156,-1.0625 0,-0.5625 0,-1.0156 0,-0.4063 0,-0.9063 0,-0.5156 0.0078,-0.9844 0.0078,-0.4687 0.0313,-0.8515 0.0234,-0.3828 0.0703,-0.5391 0.125,-0.4063 0.4218,-0.6875 0.2969,-0.2812 0.7032,-0.2812 0.4062,0 0.7031,0.2812 0.2969,0.2812 0.4219,0.6875 0.0468,0.1563 0.0703,0.5391 0.0234,0.3828 0.0312,0.8515 0.0078,0.4688 0.0078,0.9844 0,0.5 0,0.9063 z M -1.11,1.2344 q 0,-1.0156 -0.125,-2.0078 -0.125,-0.9922 -0.6406,-1.836 -0.375,-0.6094 -1.0234,-0.9218 -0.6485,-0.3126 -1.3672,-0.3126 -0.7188,0 -1.3672,0.3126 -0.6485,0.3124 -1.0235,0.9218 -0.5156,0.8438 -0.6406,1.836 -0.125,0.9922 -0.125,2.0078 0,0.9844 0.125,1.9453 0.125,0.9609 0.6406,1.8047 0.3907,0.5937 1.0313,0.8906 0.6406,0.2969 1.3594,0.2969 0.7187,0 1.3593,-0.2969 Q -2.2662,5.5781 -1.8756,4.9844 -1.36,4.1406 -1.235,3.1797 -1.11,2.2188 -1.11,1.2344 Z M -3.0319,0.9688 q 0,0.4531 0,1.0156 0,0.5468 -0.0156,1.0625 -0.0156,0.5156 -0.0312,0.9297 -0.0157,0.414 -0.0625,0.5859 Q -3.2662,5 -3.5475,5.3125 -3.8287,5.625 -4.2662,5.625 -4.7037,5.625 -4.985,5.3125 -5.2662,5 -5.3912,4.5625 -5.4381,4.3906 -5.4537,3.9766 -5.4694,3.5625 -5.485,3.0469 -5.5006,2.5312 -5.5006,1.9844 q 0,-0.5625 0,-1.0156 0,-0.4063 0,-0.9063 0,-0.5156 0.0078,-0.9844 0.0078,-0.4687 0.0313,-0.8515 0.0234,-0.3828 0.0703,-0.5391 0.125,-0.4063 0.4218,-0.6875 0.2969,-0.2812 0.7032,-0.2812 0.4062,0 0.7031,0.2812 0.2969,0.2812 0.4219,0.6875 0.0468,0.1563 0.0703,0.5391 0.0234,0.3828 0.0312,0.8515 0.0078,0.4688 0.0078,0.9844 0,0.5 0,0.9063 z"
         id="path460"
         inkscape:connector-curvature="0" />
    </g>
    <g
       transform="translate(62.6667,75)"
       style="font-weight:bold;font-size:15px;font-family:Euclid;color-interpolation:linearRGB;fill:#262626;stroke:#262626;color-rendering:optimizeQuality;image-rendering:optimizeQuality;text-rendering:geometricPrecision"
       id="g466">
      <path
         style="stroke:none"
         d="m -16.1562,3.1562 q 0,-0.7656 -0.3672,-1.4453 -0.3672,-0.6797 -1.0235,-1.0859 L -17.875,0.4219 q 0.5469,-0.3281 0.9297,-0.8125 0.3828,-0.4844 0.3828,-1.2188 0,-0.5468 -0.2109,-0.9687 -0.211,-0.4219 -0.5782,-0.7031 -0.3672,-0.2813 -0.8593,-0.4219 -0.4922,-0.1407 -1.0547,-0.1407 -0.6094,0 -1.1094,0.1954 -0.5,0.1953 -0.8516,0.539 -0.3515,0.3438 -0.5468,0.8516 -0.1954,0.5078 -0.1954,1.1016 0,0.6874 0.336,1.2812 0.3359,0.5938 0.914,0.9688 -0.7031,0.3906 -1.1874,0.9843 -0.4844,0.5938 -0.4844,1.4844 0,0.6563 0.2422,1.1406 0.2422,0.4844 0.6718,0.8047 0.4297,0.3203 0.9922,0.4922 0.5625,0.1719 1.2188,0.1719 0.6875,0 1.2578,-0.211 0.5703,-0.2109 0.9844,-0.6093 0.414,-0.3985 0.6406,-0.9532 0.2266,-0.5546 0.2266,-1.2422 z m -1.5313,-4.7656 q 0,0.5313 -0.2109,0.9375 -0.211,0.4063 -0.5704,0.7031 l -1.8124,-1.1718 q -0.2657,-0.1719 -0.4141,-0.4063 -0.1485,-0.2343 -0.1485,-0.5156 0,-0.5781 0.4297,-0.8828 0.4297,-0.3047 1.1485,-0.3047 0.7344,0 1.1562,0.4375 0.4219,0.4375 0.4219,1.2031 z m 0.2344,5.5938 q 0,0.7344 -0.4922,1.1328 -0.4922,0.3984 -1.3203,0.3984 -0.8594,0 -1.336,-0.5234 -0.4765,-0.5234 -0.4765,-1.4297 0,-0.6719 0.2578,-1.1953 0.2578,-0.5234 0.7109,-0.8672 l 1.9532,1.2656 q 0.3281,0.2032 0.5156,0.5235 0.1875,0.3203 0.1875,0.6953 z m 8.8434,-2.75 q 0,-1.0156 -0.125,-2.0078 -0.125,-0.9922 -0.6406,-1.836 -0.375,-0.6094 -1.0234,-0.9218 -0.6485,-0.3126 -1.3672,-0.3126 -0.7188,0 -1.3672,0.3126 -0.6485,0.3124 -1.0235,0.9218 -0.5156,0.8438 -0.6406,1.836 -0.125,0.9922 -0.125,2.0078 0,0.9844 0.125,1.9453 0.125,0.9609 0.6406,1.8047 0.3907,0.5937 1.0313,0.8906 0.6406,0.2969 1.3594,0.2969 0.7187,0 1.3593,-0.2969 0.6407,-0.2969 1.0313,-0.8906 0.5156,-0.8438 0.6406,-1.8047 0.125,-0.9609 0.125,-1.9453 z m -1.9219,-0.2656 q 0,0.4531 0,1.0156 0,0.5468 -0.0156,1.0625 -0.0156,0.5156 -0.0312,0.9297 -0.0157,0.414 -0.0625,0.5859 -0.125,0.4375 -0.4063,0.75 -0.2812,0.3125 -0.7187,0.3125 -0.4375,0 -0.7188,-0.3125 -0.2812,-0.3125 -0.4062,-0.75 -0.0469,-0.1719 -0.0625,-0.5859 -0.0157,-0.4141 -0.0313,-0.9297 -0.0156,-0.5157 -0.0156,-1.0625 0,-0.5625 0,-1.0156 0,-0.4063 0,-0.9063 0,-0.5156 0.0078,-0.9844 0.0078,-0.4687 0.0313,-0.8515 0.0234,-0.3828 0.0703,-0.5391 0.125,-0.4063 0.4218,-0.6875 0.2969,-0.2812 0.7032,-0.2812 0.4062,0 0.7031,0.2812 0.2969,0.2812 0.4219,0.6875 0.0468,0.1563 0.0703,0.5391 0.0234,0.3828 0.0312,0.8515 0.0078,0.4688 0.0078,0.9844 0,0.5 0,0.9063 z M -1.11,1.2344 q 0,-1.0156 -0.125,-2.0078 -0.125,-0.9922 -0.6406,-1.836 -0.375,-0.6094 -1.0234,-0.9218 -0.6485,-0.3126 -1.3672,-0.3126 -0.7188,0 -1.3672,0.3126 -0.6485,0.3124 -1.0235,0.9218 -0.5156,0.8438 -0.6406,1.836 -0.125,0.9922 -0.125,2.0078 0,0.9844 0.125,1.9453 0.125,0.9609 0.6406,1.8047 0.3907,0.5937 1.0313,0.8906 0.6406,0.2969 1.3594,0.2969 0.7187,0 1.3593,-0.2969 Q -2.2662,5.5781 -1.8756,4.9844 -1.36,4.1406 -1.235,3.1797 -1.11,2.2188 -1.11,1.2344 Z M -3.0319,0.9688 q 0,0.4531 0,1.0156 0,0.5468 -0.0156,1.0625 -0.0156,0.5156 -0.0312,0.9297 -0.0157,0.414 -0.0625,0.5859 Q -3.2662,5 -3.5475,5.3125 -3.8287,5.625 -4.2662,5.625 -4.7037,5.625 -4.985,5.3125 -5.2662,5 -5.3912,4.5625 -5.4381,4.3906 -5.4537,3.9766 -5.4694,3.5625 -5.485,3.0469 -5.5006,2.5312 -5.5006,1.9844 q 0,-0.5625 0,-1.0156 0,-0.4063 0,-0.9063 0,-0.5156 0.0078,-0.9844 0.0078,-0.4687 0.0313,-0.8515 0.0234,-0.3828 0.0703,-0.5391 0.125,-0.4063 0.4218,-0.6875 0.2969,-0.2812 0.7032,-0.2812 0.4062,0 0.7031,0.2812 0.2969,0.2812 0.4219,0.6875 0.0468,0.1563 0.0703,0.5391 0.0234,0.3828 0.0312,0.8515 0.0078,0.4688 0.0078,0.9844 0,0.5 0,0.9063 z"
         id="path464"
         inkscape:connector-curvature="0" />
    </g>
    <g
       transform="translate(62.6667,27)"
       style="font-weight:bold;font-size:15px;font-family:Euclid;color-interpolation:linearRGB;fill:#262626;stroke:#262626;color-rendering:optimizeQuality;image-rendering:optimizeQuality;text-rendering:geometricPrecision"
       id="g470">
      <path
         style="stroke:none"
         d="M -23.5625,6 V 5.2969 h -1.7344 v -8.8594 q 0,-0.1094 -0.0703,-0.1953 -0.0703,-0.086 -0.1953,-0.086 h -0.3125 q -0.6094,0.5938 -1.4219,0.7891 -0.8125,0.1953 -1.6719,0.1953 v 0.7032 q 0.4844,0 0.961,-0.0547 0.4766,-0.0547 0.9297,-0.211 V 5.2969 H -28.75 V 6 q 1.2656,-0.0469 2.5625,-0.0469 1.3125,0 2.625,0.0469 z m 7.9528,-4.7656 q 0,-1.0156 -0.125,-2.0078 -0.125,-0.9922 -0.6406,-1.836 -0.375,-0.6094 -1.0234,-0.9218 -0.6485,-0.3126 -1.3672,-0.3126 -0.7188,0 -1.3672,0.3126 -0.6485,0.3124 -1.0235,0.9218 -0.5156,0.8438 -0.6406,1.836 -0.125,0.9922 -0.125,2.0078 0,0.9844 0.125,1.9453 0.125,0.9609 0.6406,1.8047 0.3907,0.5937 1.0313,0.8906 0.6406,0.2969 1.3594,0.2969 0.7187,0 1.3593,-0.2969 0.6407,-0.2969 1.0313,-0.8906 0.5156,-0.8438 0.6406,-1.8047 0.125,-0.9609 0.125,-1.9453 z m -1.9219,-0.2656 q 0,0.4531 0,1.0156 0,0.5468 -0.0156,1.0625 -0.0156,0.5156 -0.0312,0.9297 -0.0157,0.414 -0.0625,0.5859 -0.125,0.4375 -0.4063,0.75 -0.2812,0.3125 -0.7187,0.3125 -0.4375,0 -0.7188,-0.3125 -0.2812,-0.3125 -0.4062,-0.75 -0.0469,-0.1719 -0.0625,-0.5859 -0.0157,-0.4141 -0.0313,-0.9297 -0.0156,-0.5157 -0.0156,-1.0625 0,-0.5625 0,-1.0156 0,-0.4063 0,-0.9063 0,-0.5156 0.0078,-0.9844 0.0078,-0.4687 0.0313,-0.8515 0.0234,-0.3828 0.0703,-0.5391 0.125,-0.4063 0.4218,-0.6875 0.2969,-0.2812 0.7032,-0.2812 0.4062,0 0.7031,0.2812 0.2969,0.2812 0.4219,0.6875 0.0468,0.1563 0.0703,0.5391 0.0234,0.3828 0.0312,0.8515 0.0078,0.4688 0.0078,0.9844 0,0.5 0,0.9063 z M -8.11,1.2344 q 0,-1.0156 -0.125,-2.0078 -0.125,-0.9922 -0.6406,-1.836 -0.375,-0.6094 -1.0234,-0.9218 -0.6485,-0.3126 -1.3672,-0.3126 -0.7188,0 -1.3672,0.3126 -0.6485,0.3124 -1.0235,0.9218 -0.5156,0.8438 -0.6406,1.836 -0.125,0.9922 -0.125,2.0078 0,0.9844 0.125,1.9453 0.125,0.9609 0.6406,1.8047 0.3907,0.5937 1.0313,0.8906 0.6406,0.2969 1.3594,0.2969 0.7187,0 1.3593,-0.2969 Q -9.2662,5.5781 -8.8756,4.9844 -8.36,4.1406 -8.235,3.1797 -8.11,2.2188 -8.11,1.2344 Z m -1.9219,-0.2656 q 0,0.4531 0,1.0156 0,0.5468 -0.0156,1.0625 -0.0156,0.5156 -0.0312,0.9297 -0.0157,0.414 -0.0625,0.5859 -0.125,0.4375 -0.4063,0.75 -0.2812,0.3125 -0.7187,0.3125 -0.4375,0 -0.7188,-0.3125 -0.2812,-0.3125 -0.4062,-0.75 -0.0469,-0.1719 -0.0625,-0.5859 -0.0157,-0.4141 -0.0313,-0.9297 -0.0156,-0.5157 -0.0156,-1.0625 0,-0.5625 0,-1.0156 0,-0.4063 0,-0.9063 0,-0.5156 0.0078,-0.9844 0.0078,-0.4687 0.0313,-0.8515 0.0234,-0.3828 0.0703,-0.5391 0.125,-0.4063 0.4218,-0.6875 0.2969,-0.2812 0.7032,-0.2812 0.4062,0 0.7031,0.2812 0.2969,0.2812 0.4219,0.6875 0.0468,0.1563 0.0703,0.5391 0.0234,0.3828 0.0312,0.8515 0.0078,0.4688 0.0078,0.9844 0,0.5 0,0.9063 z m 9.4216,0.2656 q 0,-1.0156 -0.125,-2.0078 -0.125,-0.9922 -0.6406,-1.836 -0.375,-0.6094 -1.0235,-0.9218 -0.6484,-0.3126 -1.3671,-0.3126 -0.7188,0 -1.3672,0.3126 -0.6485,0.3124 -1.0235,0.9218 -0.5156,0.8438 -0.6406,1.836 -0.125,0.9922 -0.125,2.0078 0,0.9844 0.125,1.9453 0.125,0.9609 0.6406,1.8047 0.3907,0.5937 1.0313,0.8906 0.6406,0.2969 1.3594,0.2969 0.7187,0 1.3593,-0.2969 0.6407,-0.2969 1.0313,-0.8906 0.5156,-0.8438 0.6406,-1.8047 0.125,-0.9609 0.125,-1.9453 z M -2.5322,0.9688 q 0,0.4531 0,1.0156 0,0.5468 -0.0156,1.0625 Q -2.5634,3.5625 -2.579,3.9766 -2.5947,4.3906 -2.6415,4.5625 -2.7665,5 -3.0478,5.3125 -3.329,5.625 -3.7665,5.625 -4.204,5.625 -4.4853,5.3125 -4.7665,5 -4.8915,4.5625 -4.9384,4.3906 -4.954,3.9766 -4.9697,3.5625 -4.9853,3.0469 -5.0009,2.5312 -5.0009,1.9844 q 0,-0.5625 0,-1.0156 0,-0.4063 0,-0.9063 0,-0.5156 0.0078,-0.9844 0.0078,-0.4687 0.0312,-0.8515 0.0235,-0.3828 0.0704,-0.5391 0.125,-0.4063 0.4218,-0.6875 0.2969,-0.2812 0.7032,-0.2812 0.4062,0 0.7031,0.2812 0.2969,0.2812 0.4219,0.6875 0.0468,0.1563 0.0703,0.5391 0.0234,0.3828 0.0312,0.8515 0.0078,0.4688 0.0078,0.9844 0,0.5 0,0.9063 z"
         id="path468"
         inkscape:connector-curvature="0" />
    </g>
    <g
       transform="translate(276.0003,16.25)"
       style="font-size:18px;font-family:mwa_cmbx10;color-interpolation:linearRGB;color-rendering:optimizeQuality;image-rendering:optimizeQuality;text-rendering:geometricPrecision"
       id="g518">
      <path
         style="stroke:none"
         d="m -143.1122,-6.6001 v -0.9218 h 1.9375 v -10.5 h -1.9375 v -0.9219 h 7.6875 q 1.3907,0 2.5703,0.4375 1.1797,0.4375 2.0157,1.2734 0.8359,0.836 1.2812,1.9922 0.4453,1.1563 0.4453,2.5781 0,1.3907 -0.4531,2.5078 -0.4531,1.1172 -1.3047,1.9141 -0.8515,0.7969 -2.0156,1.2188 -1.1641,0.4218 -2.5391,0.4218 z m 4.4688,-0.9218 h 2.5156 q 2.2969,0 3.4063,-1.3125 0.5781,-0.7032 0.7343,-1.6016 0.1563,-0.8984 0.1563,-2.2266 0,-1.375 -0.1563,-2.3125 -0.1562,-0.9375 -0.7343,-1.6718 -0.5782,-0.7188 -1.4844,-1.0469 -0.9063,-0.3281 -1.9219,-0.3281 h -2.5156 z"
         id="path472"
         inkscape:connector-curvature="0" />
      <path
         style="stroke:none"
         d="m -127.2558,-4.7094 q 0,-0.4532 0.3125,-0.7579 0.3125,-0.3046 0.7813,-0.3046 0.4375,0 0.75,0.3046 0.3125,0.3047 0.3125,0.7579 0,0.6562 -0.5313,0.9531 0.1875,0.0469 0.2813,0.0469 0.6562,0 1.1875,-0.4375 0.5312,-0.4375 0.8125,-1.0625 l 0.6562,-1.3907 -3.2968,-7.0781 h -1.1875 v -0.9062 h 4.3593 v 0.9062 h -0.9375 l 2.1719,4.6875 2.1094,-4.5312 q 0,-0.0938 -0.2969,-0.125 -0.2969,-0.0313 -0.5781,-0.0313 v -0.9062 h 3.1406 v 0.9062 q -1.125,0 -1.2656,0.1563 l -3.8594,8.3125 q -0.4219,0.9375 -1.2266,1.5781 -0.8046,0.6406 -1.789,0.6406 -0.7344,0 -1.3203,-0.4844 -0.586,-0.4843 -0.586,-1.2343 z"
         id="path474"
         inkscape:connector-curvature="0" />
      <path
         style="stroke:none"
         d="m -115.7379,-6.6001 v -0.9218 h 1.2344 v -5.6094 q 0,-0.5156 -1.2344,-0.5156 v -0.9063 l 3.1719,-0.1562 v 1.8437 q 0.4375,-0.8594 1.2656,-1.3516 0.8281,-0.4921 1.7813,-0.4921 1.4218,0 2.1406,0.5859 0.7187,0.5859 0.7187,1.9922 v 4.6094 h 1.25 v 0.9218 h -4.6093 v -0.9218 h 1.25 v -4.5469 q 0,-0.8281 -0.1641,-1.375 -0.1641,-0.5469 -0.8047,-0.5469 -0.7187,0 -1.3281,0.375 -0.6094,0.375 -0.961,1 -0.3515,0.625 -0.3515,1.3125 v 3.7813 h 1.2344 v 0.9218 z"
         id="path476"
         inkscape:connector-curvature="0" />
      <path
         style="stroke:none"
         d="m -104.2281,-8.6157 q 0,-0.8437 0.6172,-1.4062 0.6172,-0.5625 1.5234,-0.8594 0.9063,-0.2969 1.8985,-0.4141 0.9921,-0.1172 1.7734,-0.1172 v -0.6562 q 0,-0.875 -0.4844,-1.4219 -0.4844,-0.5469 -1.3281,-0.5469 -0.8438,0 -1.375,0.1094 0.3906,0.3281 0.3906,0.875 0,0.5 -0.3359,0.8281 -0.336,0.3282 -0.836,0.3282 -0.5,0 -0.8359,-0.3438 -0.3359,-0.3437 -0.3359,-0.8125 0,-1.0781 0.9843,-1.3906 0.9844,-0.3125 2.3594,-0.3125 0.6875,0 1.3594,0.1328 0.6719,0.1328 1.2578,0.4453 0.5859,0.3125 0.9453,0.8125 0.3594,0.5 0.3594,1.2344 v 4.1719 q 0,0.4375 1.2344,0.4375 0.25,0.0625 0.2968,0.2812 v 0.3438 q -0.0468,0.25 -0.2968,0.2968 h -1.2344 q -0.6875,0 -1.25,-0.2422 -0.5625,-0.2421 -0.5625,-0.8359 v -0.2187 q -0.3906,0.6875 -1.1094,1.0468 -0.7187,0.3594 -1.5469,0.3594 -1.3281,0 -2.3984,-0.4844 -1.0703,-0.4843 -1.0703,-1.6406 z m 2.1719,0 q 0,0.5938 0.4687,1 0.4688,0.4063 1.0781,0.4063 0.5157,0 1,-0.211 0.4844,-0.2109 0.7891,-0.6172 0.3047,-0.4062 0.3047,-0.9218 v -1.8125 q -0.7813,0 -1.6094,0.2109 -0.8281,0.2109 -1.4297,0.6953 -0.6015,0.4844 -0.6015,1.25 z"
         id="path478"
         inkscape:connector-curvature="0" />
      <path
         style="stroke:none"
         d="m -93.7762,-6.6001 v -0.9218 h 1.2343 v -5.6094 q 0,-0.5156 -1.2343,-0.5156 v -0.9063 l 3.1718,-0.1562 v 1.8437 q 0.2813,-0.5625 0.7578,-0.9766 0.4766,-0.414 1.086,-0.6406 0.6094,-0.2265 1.2187,-0.2265 0.7188,0 1.2657,0.1328 0.5468,0.1328 0.9375,0.4922 0.3906,0.3593 0.5781,1.0468 0.4531,-0.7812 1.2578,-1.2265 0.8047,-0.4453 1.7109,-0.4453 1.4219,0 2.1407,0.5859 0.7187,0.5859 0.7187,1.9922 v 4.6094 h 1.2344 v 0.9218 h -4.5938 v -0.9218 h 1.2344 v -4.5469 q 0,-0.8281 -0.1719,-1.375 -0.1718,-0.5469 -0.7968,-0.5469 -0.7032,0 -1.3204,0.375 -0.6171,0.375 -0.9765,0.9922 -0.3594,0.6172 -0.3594,1.3203 v 3.7813 h 1.25 v 0.9218 h -4.6094 v -0.9218 h 1.25 v -4.5469 q 0,-0.8281 -0.1718,-1.375 -0.1719,-0.5469 -0.8125,-0.5469 -0.7032,0 -1.3125,0.375 -0.6094,0.375 -0.9688,0.9922 -0.3594,0.6172 -0.3594,1.3203 v 3.7813 h 1.2344 v 0.9218 z"
         id="path480"
         inkscape:connector-curvature="0" />
      <path
         style="stroke:none"
         d="m -76.1756,-6.6001 v -0.9218 h 1.2343 v -5.6094 q 0,-0.3438 -0.3281,-0.4297 -0.3281,-0.0859 -0.8594,-0.0859 v -0.9063 l 3.2032,-0.1562 v 7.1875 h 1.1406 v 0.9218 z m 0.5625,-11.0781 q 0,-0.6094 0.414,-1.0156 0.4141,-0.4063 1.0078,-0.4063 0.625,0 1.0391,0.4063 0.4141,0.4062 0.4141,1.0156 0,0.5938 -0.4141,1.0156 -0.4141,0.4219 -1.0391,0.4219 -0.5937,0 -1.0078,-0.4219 -0.414,-0.4218 -0.414,-1.0156 z"
         id="path482"
         inkscape:connector-curvature="0" />
      <path
         style="stroke:none"
         d="m -70.4442,-10.6001 q 0,-1.2812 0.5859,-2.2343 0.586,-0.9532 1.6094,-1.4375 1.0235,-0.4844 2.2891,-0.4844 1.2812,0 2.2422,0.3359 0.9609,0.336 0.9609,1.3672 0,0.5 -0.3281,0.8281 -0.3281,0.3282 -0.8281,0.3282 -0.5,0 -0.836,-0.3282 -0.3359,-0.3281 -0.3359,-0.8281 0,-0.5625 0.3281,-0.8281 -0.4844,-0.0781 -1.1875,-0.0781 -0.8906,0 -1.3594,0.4921 -0.4687,0.4922 -0.6172,1.2266 -0.1484,0.7344 -0.1484,1.625 0,3.3281 2.5156,3.3281 0.5,0 0.9219,-0.1718 0.4219,-0.1719 0.7422,-0.5235 0.3203,-0.3515 0.4609,-0.8359 0.0782,-0.1094 0.2188,-0.1406 h 0.4687 q 0.2188,0.0625 0.2188,0.25 0,0.0156 -0.0156,0.0937 -0.2344,0.7188 -0.75,1.1953 -0.5157,0.4766 -1.211,0.7031 -0.6953,0.2266 -1.4609,0.2266 -1.25,0 -2.2735,-0.4844 -1.0234,-0.4843 -1.6171,-1.414 -0.5938,-0.9297 -0.5938,-2.211 z"
         id="path484"
         inkscape:connector-curvature="0" />
      <path
         style="stroke:none"
         d="m -53.5774,-6.6313 v -3.8594 q 0.0469,-0.1719 0.2344,-0.2187 h 0.4687 q 0.1563,0.0468 0.2188,0.2187 0,1.1563 0.6016,1.8672 0.6015,0.7109 1.5546,1.0078 0.9532,0.2969 2.0782,0.2969 0.9531,0 1.5781,-0.5547 0.625,-0.5547 0.625,-1.5078 0,-0.7188 -0.4922,-1.2813 -0.4922,-0.5625 -1.1797,-0.7343 l -2.5781,-0.5469 q -0.875,-0.2031 -1.5781,-0.6875 -0.7032,-0.4844 -1.1172,-1.2344 -0.4141,-0.75 -0.4141,-1.625 0,-1.1406 0.5313,-1.9687 0.5312,-0.8282 1.4453,-1.2579 0.914,-0.4296 2.039,-0.4296 1.8438,0 3.0782,0.9843 l 0.9062,-0.9062 q 0.0938,-0.0625 0.1719,-0.0781 h 0.2031 q 0.1875,0.0468 0.2188,0.2187 v 3.8438 q -0.0313,0.2031 -0.2188,0.2343 h -0.4531 q -0.1875,-0.0312 -0.2344,-0.2343 -0.125,-1.0157 -0.5937,-1.7344 -0.4688,-0.7188 -1.2735,-1.1016 -0.8047,-0.3828 -1.8047,-0.3828 -0.6093,0 -1.1015,0.2109 -0.4922,0.211 -0.7969,0.625 -0.3047,0.4141 -0.3047,1.0235 0,0.6406 0.4922,1.1328 0.4922,0.4922 1.1484,0.6484 l 2.5469,0.5625 q 1.3906,0.3125 2.2891,1.3438 0.8984,1.0312 0.8984,2.4531 0,0.875 -0.2969,1.6016 -0.2968,0.7265 -0.8359,1.2343 -0.5391,0.5079 -1.2812,0.7891 -0.7422,0.2813 -1.6172,0.2813 -1.0625,0 -1.9844,-0.2188 -0.9219,-0.2187 -1.6719,-0.7656 l -0.9062,0.9062 q -0.0469,0.0313 -0.1719,0.0782 h -0.1875 q -0.1875,-0.0469 -0.2344,-0.2344 z"
         id="path486"
         inkscape:connector-curvature="0" />
      <path
         style="stroke:none"
         d="m -42.6301,-4.7094 q 0,-0.4532 0.3125,-0.7579 0.3125,-0.3046 0.7812,-0.3046 0.4375,0 0.75,0.3046 0.3125,0.3047 0.3125,0.7579 0,0.6562 -0.5312,0.9531 0.1875,0.0469 0.2812,0.0469 0.6563,0 1.1875,-0.4375 0.5313,-0.4375 0.8125,-1.0625 l 0.6563,-1.3907 -3.2969,-7.0781 h -1.1875 v -0.9062 h 4.3594 v 0.9062 h -0.9375 l 2.1719,4.6875 2.1093,-4.5312 q 0,-0.0938 -0.2968,-0.125 -0.2969,-0.0313 -0.5782,-0.0313 v -0.9062 h 3.1407 v 0.9062 q -1.125,0 -1.2657,0.1563 l -3.8593,8.3125 q -0.4219,0.9375 -1.2266,1.5781 -0.8047,0.6406 -1.7891,0.6406 -0.7343,0 -1.3203,-0.4844 -0.5859,-0.4843 -0.5859,-1.2343 z"
         id="path488"
         inkscape:connector-curvature="0" />
      <path
         style="stroke:none"
         d="m -31.206,-6.7251 v -2.5 q 0.0469,-0.1718 0.2344,-0.2187 h 0.4688 q 0.1718,0.0469 0.1875,0.1406 0.1562,0.625 0.4921,1.1094 0.336,0.4844 0.836,0.7344 0.5,0.25 1.1875,0.25 2.0312,0 2.0312,-1.3125 0,-0.3594 -0.2343,-0.625 -0.2344,-0.2657 -0.586,-0.4219 -0.3515,-0.1563 -0.6797,-0.2188 l -1.3437,-0.2343 q -0.6719,-0.125 -1.25,-0.4063 -0.5781,-0.2812 -0.961,-0.7734 -0.3828,-0.4922 -0.3828,-1.1485 0,-0.7031 0.2969,-1.1875 0.2969,-0.4843 0.7734,-0.7422 0.4766,-0.2578 1.0625,-0.3671 0.586,-0.1094 1.2735,-0.1094 1.0469,0 1.7031,0.3437 l 0.6406,-0.3281 0.0782,-0.0156 h 0.2187 q 0.1563,0.0469 0.2188,0.2187 v 1.9844 q -0.0625,0.1875 -0.2188,0.2344 h -0.4687 q -0.1875,-0.0469 -0.2344,-0.2344 0,-0.8125 -0.5625,-1.1797 -0.5625,-0.3672 -1.4219,-0.3672 -2.0156,0 -2.0156,1.0782 0,0.75 1.4062,1.0468 l 1.375,0.2188 q 0.6563,0.1094 1.2735,0.4609 0.6172,0.3516 1,0.8985 0.3828,0.5468 0.3828,1.2343 0,0.9688 -0.461,1.5703 -0.4609,0.6016 -1.2265,0.8516 -0.7656,0.25 -1.6875,0.25 -1.2031,0 -2.0469,-0.5625 l -0.8594,0.5469 -0.0781,0.0156 h -0.1875 q -0.1875,-0.0469 -0.2344,-0.2344 z"
         id="path490"
         inkscape:connector-curvature="0" />
      <path
         style="stroke:none"
         d="m -21.7648,-8.7094 v -4.9688 h -1.4375 v -0.7187 q 0.6562,0 1.1718,-0.3282 0.5157,-0.3281 0.836,-0.8593 0.3203,-0.5313 0.4843,-1.1719 0.1641,-0.6406 0.1641,-1.2656 h 0.9219 v 3.4375 h 2.5781 v 0.9062 h -2.5781 v 4.9219 q 0,0.6406 0.2109,1.0547 0.211,0.414 0.7891,0.414 0.4844,0 0.7422,-0.4609 0.2578,-0.4609 0.2578,-1.0078 v -1.0313 h 0.9219 v 1.0782 q 0,0.5781 -0.2891,1.0937 -0.2891,0.5156 -0.7813,0.8203 -0.4921,0.3047 -1.0703,0.3047 -1.25,0 -2.0859,-0.5156 -0.8359,-0.5156 -0.8359,-1.7031 z"
         id="path492"
         inkscape:connector-curvature="0" />
      <path
         style="stroke:none"
         d="m -14.8002,-10.6469 q 0,-1.2657 0.586,-2.2032 0.5859,-0.9375 1.5937,-1.4218 1.0078,-0.4844 2.2578,-0.4844 1.25,0 2.1094,0.4453 0.8594,0.4453 1.3125,1.3125 0.4531,0.8672 0.4531,2.1172 0,0.25 -0.2812,0.3594 h -5.6563 q 0,0.9843 0.2266,1.6953 0.2265,0.7109 0.7969,1.125 0.5703,0.414 1.5703,0.414 0.4843,0 1.0078,-0.1718 0.5234,-0.1719 0.8984,-0.5235 0.375,-0.3515 0.5313,-0.8359 0.1093,-0.1563 0.2812,-0.2031 h 0.3438 q 0.2812,0.0625 0.2812,0.3125 0,0.0156 -0.0156,0.1093 -0.2344,0.7032 -0.7969,1.1797 -0.5625,0.4766 -1.2969,0.7031 -0.7343,0.2266 -1.4687,0.2266 -1.2813,0 -2.3672,-0.4766 -1.0859,-0.4765 -1.7266,-1.414 -0.6406,-0.9375 -0.6406,-2.2656 z m 2.375,-0.5469 h 4.1563 q 0,-1.1875 -0.4922,-2.0156 -0.4922,-0.8282 -1.6016,-0.8282 -1.125,0 -1.5937,0.8203 -0.4688,0.8204 -0.4688,2.0235 z"
         id="path494"
         inkscape:connector-curvature="0" />
      <path
         style="stroke:none"
         d="m -4.9339,-6.6001 v -0.9218 h 1.2344 v -5.6094 q 0,-0.5156 -1.2344,-0.5156 v -0.9063 l 3.1719,-0.1562 v 1.8437 q 0.2812,-0.5625 0.7578,-0.9766 0.4765,-0.414 1.0859,-0.6406 0.6094,-0.2265 1.2188,-0.2265 0.7187,0 1.2656,0.1328 0.5469,0.1328 0.9375,0.4922 0.3906,0.3593 0.5781,1.0468 0.4531,-0.7812 1.2578,-1.2265 0.8047,-0.4453 1.711,-0.4453 1.4218,0 2.1406,0.5859 0.7187,0.5859 0.7187,1.9922 v 4.6094 h 1.2344 v 0.9218 H 6.5505 v -0.9218 h 1.2343 v -4.5469 q 0,-0.8281 -0.1718,-1.375 -0.1719,-0.5469 -0.7969,-0.5469 -0.7031,0 -1.3203,0.375 -0.6172,0.375 -0.9766,0.9922 -0.3594,0.6172 -0.3594,1.3203 v 3.7813 h 1.25 v 0.9218 H 0.8005 v -0.9218 h 1.25 v -4.5469 q 0,-0.8281 -0.1719,-1.375 -0.1719,-0.5469 -0.8125,-0.5469 -0.7031,0 -1.3125,0.375 -0.6094,0.375 -0.9688,0.9922 -0.3593,0.6172 -0.3593,1.3203 v 3.7813 h 1.2343 v 0.9218 z"
         id="path496"
         inkscape:connector-curvature="0" />
      <path
         style="stroke:none"
         d="m 19.4601,-10.5219 q 0,-1.3282 0.6015,-2.2813 0.6016,-0.9531 1.6485,-1.4531 1.0468,-0.5 2.3437,-0.5 0.9688,0 1.8047,0.2812 0.8359,0.2813 1.4688,0.8282 0.6328,0.5468 0.9687,1.3359 0.3359,0.7891 0.3359,1.7891 0,0.9843 -0.3593,1.7421 -0.3594,0.7579 -0.9922,1.2657 -0.6328,0.5078 -1.4688,0.7656 -0.8359,0.2578 -1.7578,0.2578 -0.9219,0 -1.7578,-0.2578 -0.8359,-0.2578 -1.4766,-0.7656 -0.6406,-0.5078 -1,-1.2657 -0.3593,-0.7578 -0.3593,-1.7421 z m 4.5937,3.2343 q 1.0313,0 1.5078,-0.4765 0.4766,-0.4766 0.5938,-1.1719 0.1172,-0.6953 0.1172,-1.8203 0,-0.8438 -0.0625,-1.3594 -0.0625,-0.5156 -0.2657,-0.9531 -0.2031,-0.4375 -0.6562,-0.7031 -0.4531,-0.2657 -1.2344,-0.2657 -0.7812,0 -1.2344,0.2657 -0.4531,0.2656 -0.664,0.7109 -0.211,0.4453 -0.2656,1.0078 -0.0547,0.5625 -0.0547,1.2969 0,1.125 0.1093,1.8203 0.1094,0.6953 0.5938,1.1719 0.4844,0.4765 1.5156,0.4765 z"
         id="path498"
         inkscape:connector-curvature="0" />
      <path
         style="stroke:none"
         d="m 30.2517,-6.6001 v -0.9218 h 1.25 v -6.1563 h -1.3281 v -0.9062 h 1.3281 v -1.9375 q 0,-0.9375 0.6015,-1.5391 0.6016,-0.6016 1.5,-0.875 0.8985,-0.2734 1.8516,-0.2734 0.4688,0 0.9063,0.1953 0.4375,0.1953 0.7187,0.5703 0.2813,0.375 0.2813,0.8437 0,0.4844 -0.336,0.8203 -0.3359,0.336 -0.8047,0.336 -0.4843,0 -0.8125,-0.336 -0.3281,-0.3359 -0.3281,-0.8203 0,-0.5468 0.375,-0.8593 -0.0781,-0.0313 -0.2187,-0.0313 -0.8438,0 -1.336,0.5781 -0.4922,0.5782 -0.4922,1.4532 v 1.875 h 2.1407 v 0.9062 h -2.0313 v 6.1563 h 1.5625 v 0.9218 z"
         id="path500"
         inkscape:connector-curvature="0" />
      <path
         style="stroke:none"
         d="m 44.0496,-6.6313 v -3.8594 q 0.0469,-0.1719 0.2344,-0.2187 h 0.4688 q 0.1562,0.0468 0.2187,0.2187 0,1.1563 0.6016,1.8672 0.6015,0.7109 1.5547,1.0078 0.9531,0.2969 2.0781,0.2969 0.9531,0 1.5781,-0.5547 0.625,-0.5547 0.625,-1.5078 0,-0.7188 -0.4922,-1.2813 -0.4922,-0.5625 -1.1797,-0.7343 l -2.5781,-0.5469 q -0.875,-0.2031 -1.5781,-0.6875 -0.7031,-0.4844 -1.1172,-1.2344 -0.4141,-0.75 -0.4141,-1.625 0,-1.1406 0.5313,-1.9687 0.5312,-0.8282 1.4453,-1.2579 0.9141,-0.4296 2.0391,-0.4296 1.8437,0 3.0781,0.9843 l 0.9062,-0.9062 q 0.0938,-0.0625 0.1719,-0.0781 h 0.2031 q 0.1875,0.0468 0.2188,0.2187 v 3.8438 q -0.0313,0.2031 -0.2188,0.2343 h -0.4531 q -0.1875,-0.0312 -0.2344,-0.2343 -0.125,-1.0157 -0.5937,-1.7344 -0.4688,-0.7188 -1.2735,-1.1016 -0.8046,-0.3828 -1.8046,-0.3828 -0.6094,0 -1.1016,0.2109 -0.4922,0.211 -0.7969,0.625 -0.3047,0.4141 -0.3047,1.0235 0,0.6406 0.4922,1.1328 0.4922,0.4922 1.1485,0.6484 l 2.5468,0.5625 q 1.3907,0.3125 2.2891,1.3438 0.8984,1.0312 0.8984,2.4531 0,0.875 -0.2968,1.6016 -0.2969,0.7265 -0.836,1.2343 -0.539,0.5079 -1.2812,0.7891 -0.7422,0.2813 -1.6172,0.2813 -1.0625,0 -1.9844,-0.2188 -0.9219,-0.2187 -1.6719,-0.7656 l -0.9062,0.9062 q -0.0469,0.0313 -0.1719,0.0782 H 44.284 q -0.1875,-0.0469 -0.2344,-0.2344 z"
         id="path502"
         inkscape:connector-curvature="0" />
      <path
         style="stroke:none"
         d="m 55.1532,-6.6001 v -0.9218 h 2.0625 v -10.5 h -2.0625 v -0.9219 h 6.7343 v 0.9219 h -2.0468 v 10.5 h 2.0468 v 0.9218 z"
         id="path504"
         inkscape:connector-curvature="0" />
      <path
         style="stroke:none"
         d="m 63.3047,-6.6001 v -0.9218 h 1.9375 v -10.5 h -1.9375 v -0.9219 h 6.6407 q 1.2656,0 2.5234,0.3047 1.2578,0.3047 2.1484,1.0625 0.8907,0.7578 0.8907,1.9922 0,1.1093 -0.8594,1.8359 -0.8594,0.7266 -2.0781,1.0547 0.5156,0.1875 0.9375,0.5 0.4218,0.3125 0.6875,0.75 0.2656,0.4375 0.3437,0.9687 l 0.1875,1.5782 q 0.125,0.7812 0.4141,1.2812 0.289,0.5 0.9297,0.5 0.4687,0 0.7656,-0.3984 0.2969,-0.3985 0.2969,-0.8985 0.0468,-0.25 0.2812,-0.2968 h 0.3438 q 0.2812,0.0468 0.2812,0.3593 0,0.5157 -0.2734,0.9688 -0.2735,0.4531 -0.7266,0.7187 -0.4531,0.2657 -0.9687,0.2657 -1.0625,0 -1.9766,-0.1641 -0.9141,-0.1641 -1.5469,-0.7109 -0.6328,-0.5469 -0.6328,-1.5625 v -1.5625 q 0,-0.5469 -0.2734,-1.0157 -0.2735,-0.4687 -0.7344,-0.7343 -0.4609,-0.2657 -1.0078,-0.2657 h -2.125 v 4.8907 h 1.9375 v 0.9218 z m 4.4688,-6.5312 h 1.8125 q 0.8125,0 1.3594,-0.086 0.5468,-0.0859 0.9375,-0.3437 0.3906,-0.2578 0.5937,-0.7422 0.2031,-0.4844 0.2031,-1.2812 0,-1.0625 -0.3437,-1.586 -0.3438,-0.5234 -0.9922,-0.6875 -0.6484,-0.164 -1.7578,-0.164 h -1.8125 z"
         id="path506"
         inkscape:connector-curvature="0" />
      <path
         style="stroke:none"
         d="m 86.1449,-6.6001 v -0.9218 q 0.9687,0 1.4531,-0.0313 0.4844,0 0.4844,-0.125 v -10.3437 h -1.9375 v -0.9219 h 4.3281 q 0.375,0 0.5156,0.3125 l 4.2813,9.5469 4.2812,-9.5469 q 0.1407,-0.3125 0.5,-0.3125 h 4.3282 v 0.9219 h -1.9532 v 10.5 h 1.9532 v 0.9218 h -6.2032 v -0.9218 h 1.9375 v -10.5313 l -5,11.125 q -0.1406,0.3281 -0.5156,0.3281 h -0.0781 q -0.375,0 -0.5156,-0.3281 l -4.8907,-10.8906 v 10.1406 q 0,0.125 0.4844,0.125 0.4844,0.0313 1.4531,0.0313 v 0.9218 z"
         id="path508"
         inkscape:connector-curvature="0" />
      <path
         style="stroke:none"
         d="m 106.0337,-10.5219 q 0,-1.3282 0.6015,-2.2813 0.6016,-0.9531 1.6485,-1.4531 1.0469,-0.5 2.3437,-0.5 0.9688,0 1.8047,0.2812 0.836,0.2813 1.4688,0.8282 0.6328,0.5468 0.9687,1.3359 0.336,0.7891 0.336,1.7891 0,0.9843 -0.3594,1.7421 -0.3594,0.7579 -0.9922,1.2657 -0.6328,0.5078 -1.4688,0.7656 -0.8359,0.2578 -1.7578,0.2578 -0.9218,0 -1.7578,-0.2578 -0.8359,-0.2578 -1.4765,-0.7656 -0.6407,-0.5078 -1,-1.2657 -0.3594,-0.7578 -0.3594,-1.7421 z m 4.5937,3.2343 q 1.0313,0 1.5078,-0.4765 0.4766,-0.4766 0.5938,-1.1719 0.1172,-0.6953 0.1172,-1.8203 0,-0.8438 -0.0625,-1.3594 -0.0625,-0.5156 -0.2656,-0.9531 -0.2032,-0.4375 -0.6563,-0.7031 -0.4531,-0.2657 -1.2344,-0.2657 -0.7812,0 -1.2343,0.2657 -0.4532,0.2656 -0.6641,0.7109 -0.2109,0.4453 -0.2656,1.0078 -0.0547,0.5625 -0.0547,1.2969 0,1.125 0.1094,1.8203 0.1093,0.6953 0.5937,1.1719 0.4844,0.4765 1.5156,0.4765 z"
         id="path510"
         inkscape:connector-curvature="0" />
      <path
         style="stroke:none"
         d="m 117.2703,-10.6001 q 0,-1.2812 0.5938,-2.2109 0.5937,-0.9297 1.6093,-1.4141 1.0157,-0.4843 2.2969,-0.4843 0.6406,0 1.2656,0.1953 0.625,0.1953 1.1407,0.5859 v -3.5937 q 0,-0.3438 -0.3516,-0.4219 -0.3516,-0.0781 -0.8828,-0.0781 v -0.9219 l 3.25,-0.1406 v 11.0625 q 0,0.3125 0.3515,0.4062 0.3516,0.0938 0.8985,0.0938 v 0.9218 l -3.375,0.1094 v -0.8594 q -1.125,0.8594 -2.5156,0.8594 -1.9063,0 -3.0938,-1.1094 -1.1875,-1.1093 -1.1875,-3 z m 4.4844,3.3907 q 0.7031,0 1.3203,-0.3516 0.6172,-0.3516 0.9922,-0.9297 v -4.4531 q -0.375,-0.5 -0.9141,-0.7735 -0.539,-0.2734 -1.1797,-0.2734 -0.9843,0 -1.5,0.4688 -0.5156,0.4687 -0.6718,1.1875 -0.1563,0.7187 -0.1563,1.7031 v 0.0469 q 0,1.5468 0.3828,2.4609 0.3828,0.9141 1.7266,0.9141 z"
         id="path512"
         inkscape:connector-curvature="0" />
      <path
         style="stroke:none"
         d="m 128.8738,-10.6469 q 0,-1.2657 0.586,-2.2032 0.5859,-0.9375 1.5937,-1.4218 1.0078,-0.4844 2.2578,-0.4844 1.25,0 2.1094,0.4453 0.8594,0.4453 1.3125,1.3125 0.4531,0.8672 0.4531,2.1172 0,0.25 -0.2812,0.3594 h -5.6563 q 0,0.9843 0.2266,1.6953 0.2266,0.7109 0.7969,1.125 0.5703,0.414 1.5703,0.414 0.4844,0 1.0078,-0.1718 0.5234,-0.1719 0.8984,-0.5235 0.375,-0.3515 0.5313,-0.8359 0.1094,-0.1563 0.2812,-0.2031 h 0.3438 q 0.2812,0.0625 0.2812,0.3125 0,0.0156 -0.0156,0.1093 -0.2344,0.7032 -0.7969,1.1797 -0.5625,0.4766 -1.2968,0.7031 -0.7344,0.2266 -1.4688,0.2266 -1.2812,0 -2.3672,-0.4766 -1.0859,-0.4765 -1.7265,-1.414 -0.6407,-0.9375 -0.6407,-2.2656 z m 2.375,-0.5469 h 4.1563 q 0,-1.1875 -0.4922,-2.0156 -0.4922,-0.8282 -1.6016,-0.8282 -1.125,0 -1.5937,0.8203 -0.4688,0.8204 -0.4688,2.0235 z"
         id="path514"
         inkscape:connector-curvature="0" />
      <path
         style="stroke:none"
         d="m 138.7714,-6.6001 v -0.9218 h 1.2343 v -10 q 0,-0.3438 -0.3515,-0.4219 -0.3516,-0.0781 -0.8828,-0.0781 v -0.9219 l 3.25,-0.1406 v 11.5625 h 1.25 v 0.9218 z"
         id="path516"
         inkscape:connector-curvature="0" />
    </g>
    <g
       style="color-interpolation:linearRGB;fill:#0072bd;stroke:#0072bd;stroke-width:1.83329999;stroke-linecap:butt;stroke-linejoin:round;color-rendering:optimizeQuality;image-rendering:optimizeQuality;text-rendering:geometricPrecision"
       id="g676">
      <path
         d="m 69,267 16.56,-0.72 16.56,-1.296 16.56,-2.32 16.56,-4.1124 16.56,-7.1614 16.56,-12.0851 16.56,-19.3052 16.56,-28.1091 16.56,-35.3284 16.56,-36.088 16.56,-29.1216 16.56,-19.3209 16.56,-11.3702 16.56,-6.2867 16.56,-3.3691 16.56,-1.7775 16.56,-0.9303 16.56,-0.4848 16.56,-0.2522 16.56,-0.1311 16.56,-0.068 16.56,-0.0353 16.56,-0.0184 16.56,-0.0095"
         style="fill:none;fill-rule:evenodd"
         id="path520"
         inkscape:connector-curvature="0" />
      <path
         d="M 0,-4 V 4 M -4,0 h 8 m -6.6517,-2.6517 5.3034,5.3034 m -5.3034,0 5.3034,-5.3034"
         style="fill:none;stroke-linejoin:miter"
         transform="translate(69,267)"
         id="path522"
         inkscape:connector-curvature="0" />
      <path
         d="M 0,-4 V 4 M -4,0 h 8 m -6.6517,-2.6517 5.3034,5.3034 m -5.3034,0 5.3034,-5.3034"
         style="fill:none;stroke-linejoin:miter"
         transform="translate(85.56,266.28)"
         id="path524"
         inkscape:connector-curvature="0" />
      <path
         d="M 0,-4 V 4 M -4,0 h 8 m -6.6517,-2.6517 5.3034,5.3034 m -5.3034,0 5.3034,-5.3034"
         style="fill:none;stroke-linejoin:miter"
         transform="translate(102.12,264.984)"
         id="path526"
         inkscape:connector-curvature="0" />
      <path
         d="M 0,-4 V 4 M -4,0 h 8 m -6.6517,-2.6517 5.3034,5.3034 m -5.3034,0 5.3034,-5.3034"
         style="fill:none;stroke-linejoin:miter"
         transform="translate(118.68,262.664)"
         id="path528"
         inkscape:connector-curvature="0" />
      <path
         d="M 0,-4 V 4 M -4,0 h 8 m -6.6517,-2.6517 5.3034,5.3034 m -5.3034,0 5.3034,-5.3034"
         style="fill:none;stroke-linejoin:miter"
         transform="translate(135.24,258.5516)"
         id="path530"
         inkscape:connector-curvature="0" />
      <path
         d="M 0,-4 V 4 M -4,0 h 8 m -6.6517,-2.6517 5.3034,5.3034 m -5.3034,0 5.3034,-5.3034"
         style="fill:none;stroke-linejoin:miter"
         transform="translate(151.8,251.3902)"
         id="path532"
         inkscape:connector-curvature="0" />
      <path
         d="M 0,-4 V 4 M -4,0 h 8 m -6.6517,-2.6517 5.3034,5.3034 m -5.3034,0 5.3034,-5.3034"
         style="fill:none;stroke-linejoin:miter"
         transform="translate(168.36,239.3051)"
         id="path534"
         inkscape:connector-curvature="0" />
      <path
         d="M 0,-4 V 4 M -4,0 h 8 m -6.6517,-2.6517 5.3034,5.3034 m -5.3034,0 5.3034,-5.3034"
         style="fill:none;stroke-linejoin:miter"
         transform="translate(184.92,219.9999)"
         id="path536"
         inkscape:connector-curvature="0" />
      <path
         d="M 0,-4 V 4 M -4,0 h 8 m -6.6517,-2.6517 5.3034,5.3034 m -5.3034,0 5.3034,-5.3034"
         style="fill:none;stroke-linejoin:miter"
         transform="translate(201.48,191.8908)"
         id="path538"
         inkscape:connector-curvature="0" />
      <path
         d="M 0,-4 V 4 M -4,0 h 8 m -6.6517,-2.6517 5.3034,5.3034 m -5.3034,0 5.3034,-5.3034"
         style="fill:none;stroke-linejoin:miter"
         transform="translate(218.04,156.5624)"
         id="path540"
         inkscape:connector-curvature="0" />
      <path
         d="M 0,-4 V 4 M -4,0 h 8 m -6.6517,-2.6517 5.3034,5.3034 m -5.3034,0 5.3034,-5.3034"
         style="fill:none;stroke-linejoin:miter"
         transform="translate(234.6,120.4744)"
         id="path542"
         inkscape:connector-curvature="0" />
      <path
         d="M 0,-4 V 4 M -4,0 h 8 m -6.6517,-2.6517 5.3034,5.3034 m -5.3034,0 5.3034,-5.3034"
         style="fill:none;stroke-linejoin:miter"
         transform="translate(251.16,91.3528)"
         id="path544"
         inkscape:connector-curvature="0" />
      <path
         d="M 0,-4 V 4 M -4,0 h 8 m -6.6517,-2.6517 5.3034,5.3034 m -5.3034,0 5.3034,-5.3034"
         style="fill:none;stroke-linejoin:miter"
         transform="translate(267.72,72.0319)"
         id="path546"
         inkscape:connector-curvature="0" />
      <path
         d="M 0,-4 V 4 M -4,0 h 8 m -6.6517,-2.6517 5.3034,5.3034 m -5.3034,0 5.3034,-5.3034"
         style="fill:none;stroke-linejoin:miter"
         transform="translate(284.28,60.6617)"
         id="path548"
         inkscape:connector-curvature="0" />
      <path
         d="M 0,-4 V 4 M -4,0 h 8 m -6.6517,-2.6517 5.3034,5.3034 m -5.3034,0 5.3034,-5.3034"
         style="fill:none;stroke-linejoin:miter"
         transform="translate(300.84,54.375)"
         id="path550"
         inkscape:connector-curvature="0" />
      <path
         d="M 0,-4 V 4 M -4,0 h 8 m -6.6517,-2.6517 5.3034,5.3034 m -5.3034,0 5.3034,-5.3034"
         style="fill:none;stroke-linejoin:miter"
         transform="translate(317.4,51.0059)"
         id="path552"
         inkscape:connector-curvature="0" />
      <path
         d="M 0,-4 V 4 M -4,0 h 8 m -6.6517,-2.6517 5.3034,5.3034 m -5.3034,0 5.3034,-5.3034"
         style="fill:none;stroke-linejoin:miter"
         transform="translate(333.96,49.2284)"
         id="path554"
         inkscape:connector-curvature="0" />
      <path
         d="M 0,-4 V 4 M -4,0 h 8 m -6.6517,-2.6517 5.3034,5.3034 m -5.3034,0 5.3034,-5.3034"
         style="fill:none;stroke-linejoin:miter"
         transform="translate(350.52,48.2981)"
         id="path556"
         inkscape:connector-curvature="0" />
      <path
         d="M 0,-4 V 4 M -4,0 h 8 m -6.6517,-2.6517 5.3034,5.3034 m -5.3034,0 5.3034,-5.3034"
         style="fill:none;stroke-linejoin:miter"
         transform="translate(367.08,47.8133)"
         id="path558"
         inkscape:connector-curvature="0" />
      <path
         d="M 0,-4 V 4 M -4,0 h 8 m -6.6517,-2.6517 5.3034,5.3034 m -5.3034,0 5.3034,-5.3034"
         style="fill:none;stroke-linejoin:miter"
         transform="translate(383.64,47.5611)"
         id="path560"
         inkscape:connector-curvature="0" />
      <path
         d="M 0,-4 V 4 M -4,0 h 8 m -6.6517,-2.6517 5.3034,5.3034 m -5.3034,0 5.3034,-5.3034"
         style="fill:none;stroke-linejoin:miter"
         transform="translate(400.2,47.43)"
         id="path562"
         inkscape:connector-curvature="0" />
      <path
         d="M 0,-4 V 4 M -4,0 h 8 m -6.6517,-2.6517 5.3034,5.3034 m -5.3034,0 5.3034,-5.3034"
         style="fill:none;stroke-linejoin:miter"
         transform="translate(416.76,47.362)"
         id="path564"
         inkscape:connector-curvature="0" />
      <path
         d="M 0,-4 V 4 M -4,0 h 8 m -6.6517,-2.6517 5.3034,5.3034 m -5.3034,0 5.3034,-5.3034"
         style="fill:none;stroke-linejoin:miter"
         transform="translate(433.32,47.3267)"
         id="path566"
         inkscape:connector-curvature="0" />
      <path
         d="M 0,-4 V 4 M -4,0 h 8 m -6.6517,-2.6517 5.3034,5.3034 m -5.3034,0 5.3034,-5.3034"
         style="fill:none;stroke-linejoin:miter"
         transform="translate(449.88,47.3083)"
         id="path568"
         inkscape:connector-curvature="0" />
      <path
         d="M 0,-4 V 4 M -4,0 h 8 m -6.6517,-2.6517 5.3034,5.3034 m -5.3034,0 5.3034,-5.3034"
         style="fill:none;stroke-linejoin:miter"
         transform="translate(466.44,47.2988)"
         id="path570"
         inkscape:connector-curvature="0" />
      <path
         d="m 69,265.8 16.56,-0.96 16.56,-1.7067 16.56,-2.9872 16.56,-5.0818 16.56,-8.2061 16.56,-12.0335 16.56,-14.6731 16.56,-12.0323 16.56,-1.266 16.56,11.6108 16.56,16.3343 16.56,13.2513 16.56,8.4725 16.56,4.8626 16.56,2.6528 16.56,1.412 16.56,0.7423 16.56,0.3878 16.56,0.2019 16.56,0.105 16.56,0.0545 16.56,0.0284 16.56,0.0146 16.56,0.008"
         style="fill:none;fill-rule:evenodd;stroke:#d95319"
         id="path572"
         inkscape:connector-curvature="0" />
      <path
         d="m -2.6517,-2.6517 5.3034,5.3034 m -5.3034,0 5.3034,-5.3034"
         style="fill:none;stroke:#d95319;stroke-linejoin:miter"
         transform="translate(69,265.8)"
         id="path574"
         inkscape:connector-curvature="0" />
      <path
         d="m -2.6517,-2.6517 5.3034,5.3034 m -5.3034,0 5.3034,-5.3034"
         style="fill:none;stroke:#d95319;stroke-linejoin:miter"
         transform="translate(85.56,264.84)"
         id="path576"
         inkscape:connector-curvature="0" />
      <path
         d="m -2.6517,-2.6517 5.3034,5.3034 m -5.3034,0 5.3034,-5.3034"
         style="fill:none;stroke:#d95319;stroke-linejoin:miter"
         transform="translate(102.12,263.1333)"
         id="path578"
         inkscape:connector-curvature="0" />
      <path
         d="m -2.6517,-2.6517 5.3034,5.3034 m -5.3034,0 5.3034,-5.3034"
         style="fill:none;stroke:#d95319;stroke-linejoin:miter"
         transform="translate(118.68,260.1461)"
         id="path580"
         inkscape:connector-curvature="0" />
      <path
         d="m -2.6517,-2.6517 5.3034,5.3034 m -5.3034,0 5.3034,-5.3034"
         style="fill:none;stroke:#d95319;stroke-linejoin:miter"
         transform="translate(135.24,255.0643)"
         id="path582"
         inkscape:connector-curvature="0" />
      <path
         d="m -2.6517,-2.6517 5.3034,5.3034 m -5.3034,0 5.3034,-5.3034"
         style="fill:none;stroke:#d95319;stroke-linejoin:miter"
         transform="translate(151.8,246.8582)"
         id="path584"
         inkscape:connector-curvature="0" />
      <path
         d="m -2.6517,-2.6517 5.3034,5.3034 m -5.3034,0 5.3034,-5.3034"
         style="fill:none;stroke:#d95319;stroke-linejoin:miter"
         transform="translate(168.36,234.8247)"
         id="path586"
         inkscape:connector-curvature="0" />
      <path
         d="m -2.6517,-2.6517 5.3034,5.3034 m -5.3034,0 5.3034,-5.3034"
         style="fill:none;stroke:#d95319;stroke-linejoin:miter"
         transform="translate(184.92,220.1516)"
         id="path588"
         inkscape:connector-curvature="0" />
      <path
         d="m -2.6517,-2.6517 5.3034,5.3034 m -5.3034,0 5.3034,-5.3034"
         style="fill:none;stroke:#d95319;stroke-linejoin:miter"
         transform="translate(201.48,208.1193)"
         id="path590"
         inkscape:connector-curvature="0" />
      <path
         d="m -2.6517,-2.6517 5.3034,5.3034 m -5.3034,0 5.3034,-5.3034"
         style="fill:none;stroke:#d95319;stroke-linejoin:miter"
         transform="translate(218.04,206.8533)"
         id="path592"
         inkscape:connector-curvature="0" />
      <path
         d="m -2.6517,-2.6517 5.3034,5.3034 m -5.3034,0 5.3034,-5.3034"
         style="fill:none;stroke:#d95319;stroke-linejoin:miter"
         transform="translate(234.6,218.4641)"
         id="path594"
         inkscape:connector-curvature="0" />
      <path
         d="m -2.6517,-2.6517 5.3034,5.3034 m -5.3034,0 5.3034,-5.3034"
         style="fill:none;stroke:#d95319;stroke-linejoin:miter"
         transform="translate(251.16,234.7984)"
         id="path596"
         inkscape:connector-curvature="0" />
      <path
         d="m -2.6517,-2.6517 5.3034,5.3034 m -5.3034,0 5.3034,-5.3034"
         style="fill:none;stroke:#d95319;stroke-linejoin:miter"
         transform="translate(267.72,248.0497)"
         id="path598"
         inkscape:connector-curvature="0" />
      <path
         d="m -2.6517,-2.6517 5.3034,5.3034 m -5.3034,0 5.3034,-5.3034"
         style="fill:none;stroke:#d95319;stroke-linejoin:miter"
         transform="translate(284.28,256.5222)"
         id="path600"
         inkscape:connector-curvature="0" />
      <path
         d="m -2.6517,-2.6517 5.3034,5.3034 m -5.3034,0 5.3034,-5.3034"
         style="fill:none;stroke:#d95319;stroke-linejoin:miter"
         transform="translate(300.84,261.3848)"
         id="path602"
         inkscape:connector-curvature="0" />
      <path
         d="m -2.6517,-2.6517 5.3034,5.3034 m -5.3034,0 5.3034,-5.3034"
         style="fill:none;stroke:#d95319;stroke-linejoin:miter"
         transform="translate(317.4,264.0376)"
         id="path604"
         inkscape:connector-curvature="0" />
      <path
         d="m -2.6517,-2.6517 5.3034,5.3034 m -5.3034,0 5.3034,-5.3034"
         style="fill:none;stroke:#d95319;stroke-linejoin:miter"
         transform="translate(333.96,265.4496)"
         id="path606"
         inkscape:connector-curvature="0" />
      <path
         d="m -2.6517,-2.6517 5.3034,5.3034 m -5.3034,0 5.3034,-5.3034"
         style="fill:none;stroke:#d95319;stroke-linejoin:miter"
         transform="translate(350.52,266.1919)"
         id="path608"
         inkscape:connector-curvature="0" />
      <path
         d="m -2.6517,-2.6517 5.3034,5.3034 m -5.3034,0 5.3034,-5.3034"
         style="fill:none;stroke:#d95319;stroke-linejoin:miter"
         transform="translate(367.08,266.5797)"
         id="path610"
         inkscape:connector-curvature="0" />
      <path
         d="m -2.6517,-2.6517 5.3034,5.3034 m -5.3034,0 5.3034,-5.3034"
         style="fill:none;stroke:#d95319;stroke-linejoin:miter"
         transform="translate(383.64,266.7816)"
         id="path612"
         inkscape:connector-curvature="0" />
      <path
         d="m -2.6517,-2.6517 5.3034,5.3034 m -5.3034,0 5.3034,-5.3034"
         style="fill:none;stroke:#d95319;stroke-linejoin:miter"
         transform="translate(400.2,266.8866)"
         id="path614"
         inkscape:connector-curvature="0" />
      <path
         d="m -2.6517,-2.6517 5.3034,5.3034 m -5.3034,0 5.3034,-5.3034"
         style="fill:none;stroke:#d95319;stroke-linejoin:miter"
         transform="translate(416.76,266.9411)"
         id="path616"
         inkscape:connector-curvature="0" />
      <path
         d="m -2.6517,-2.6517 5.3034,5.3034 m -5.3034,0 5.3034,-5.3034"
         style="fill:none;stroke:#d95319;stroke-linejoin:miter"
         transform="translate(433.32,266.9695)"
         id="path618"
         inkscape:connector-curvature="0" />
      <path
         d="m -2.6517,-2.6517 5.3034,5.3034 m -5.3034,0 5.3034,-5.3034"
         style="fill:none;stroke:#d95319;stroke-linejoin:miter"
         transform="translate(449.88,266.9841)"
         id="path620"
         inkscape:connector-curvature="0" />
      <path
         d="m -2.6517,-2.6517 5.3034,5.3034 m -5.3034,0 5.3034,-5.3034"
         style="fill:none;stroke:#d95319;stroke-linejoin:miter"
         transform="translate(466.44,266.9918)"
         id="path622"
         inkscape:connector-curvature="0" />
      <path
         d="m 69,28.2 16.56,1.68 16.56,3.0027 16.56,5.3073 16.56,9.1941 16.56,15.3676 16.56,24.1185 16.56,33.9784 16.56,40.1413 16.56,36.5944 16.56,24.4772 16.56,12.7872 16.56,6.0698 16.56,2.8976 16.56,1.4241 16.56,0.7164 16.56,0.3654 16.56,0.188 16.56,0.0971 16.56,0.0502 16.56,0.0261 16.56,0.0135 16.56,0.007 16.56,0.004 16.56,0.002"
         style="fill:none;fill-rule:evenodd;stroke:#edb120"
         id="path624"
         inkscape:connector-curvature="0" />
      <path
         d="M 0,-4.9987 -4.3289,2.4994 H 4.3289 Z"
         style="fill:none;stroke:#edb120;stroke-linejoin:miter"
         transform="translate(69,28.2)"
         id="path626"
         inkscape:connector-curvature="0" />
      <path
         d="M 0,-4.9987 -4.3289,2.4994 H 4.3289 Z"
         style="fill:none;stroke:#edb120;stroke-linejoin:miter"
         transform="translate(85.56,29.88)"
         id="path628"
         inkscape:connector-curvature="0" />
      <path
         d="M 0,-4.9987 -4.3289,2.4994 H 4.3289 Z"
         style="fill:none;stroke:#edb120;stroke-linejoin:miter"
         transform="translate(102.12,32.8827)"
         id="path630"
         inkscape:connector-curvature="0" />
      <path
         d="M 0,-4.9987 -4.3289,2.4994 H 4.3289 Z"
         style="fill:none;stroke:#edb120;stroke-linejoin:miter"
         transform="translate(118.68,38.19)"
         id="path632"
         inkscape:connector-curvature="0" />
      <path
         d="M 0,-4.9987 -4.3289,2.4994 H 4.3289 Z"
         style="fill:none;stroke:#edb120;stroke-linejoin:miter"
         transform="translate(135.24,47.3841)"
         id="path634"
         inkscape:connector-curvature="0" />
      <path
         d="M 0,-4.9987 -4.3289,2.4994 H 4.3289 Z"
         style="fill:none;stroke:#edb120;stroke-linejoin:miter"
         transform="translate(151.8,62.7517)"
         id="path636"
         inkscape:connector-curvature="0" />
      <path
         d="M 0,-4.9987 -4.3289,2.4994 H 4.3289 Z"
         style="fill:none;stroke:#edb120;stroke-linejoin:miter"
         transform="translate(168.36,86.8702)"
         id="path638"
         inkscape:connector-curvature="0" />
      <path
         d="M 0,-4.9987 -4.3289,2.4994 H 4.3289 Z"
         style="fill:none;stroke:#edb120;stroke-linejoin:miter"
         transform="translate(184.92,120.8486)"
         id="path640"
         inkscape:connector-curvature="0" />
      <path
         d="M 0,-4.9987 -4.3289,2.4994 H 4.3289 Z"
         style="fill:none;stroke:#edb120;stroke-linejoin:miter"
         transform="translate(201.48,160.9899)"
         id="path642"
         inkscape:connector-curvature="0" />
      <path
         d="M 0,-4.9987 -4.3289,2.4994 H 4.3289 Z"
         style="fill:none;stroke:#edb120;stroke-linejoin:miter"
         transform="translate(218.04,197.5843)"
         id="path644"
         inkscape:connector-curvature="0" />
      <path
         d="M 0,-4.9987 -4.3289,2.4994 H 4.3289 Z"
         style="fill:none;stroke:#edb120;stroke-linejoin:miter"
         transform="translate(234.6,222.0615)"
         id="path646"
         inkscape:connector-curvature="0" />
      <path
         d="M 0,-4.9987 -4.3289,2.4994 H 4.3289 Z"
         style="fill:none;stroke:#edb120;stroke-linejoin:miter"
         transform="translate(251.16,234.8487)"
         id="path648"
         inkscape:connector-curvature="0" />
      <path
         d="M 0,-4.9987 -4.3289,2.4994 H 4.3289 Z"
         style="fill:none;stroke:#edb120;stroke-linejoin:miter"
         transform="translate(267.72,240.9185)"
         id="path650"
         inkscape:connector-curvature="0" />
      <path
         d="M 0,-4.9987 -4.3289,2.4994 H 4.3289 Z"
         style="fill:none;stroke:#edb120;stroke-linejoin:miter"
         transform="translate(284.28,243.8161)"
         id="path652"
         inkscape:connector-curvature="0" />
      <path
         d="M 0,-4.9987 -4.3289,2.4994 H 4.3289 Z"
         style="fill:none;stroke:#edb120;stroke-linejoin:miter"
         transform="translate(300.84,245.2402)"
         id="path654"
         inkscape:connector-curvature="0" />
      <path
         d="M 0,-4.9987 -4.3289,2.4994 H 4.3289 Z"
         style="fill:none;stroke:#edb120;stroke-linejoin:miter"
         transform="translate(317.4,245.9566)"
         id="path656"
         inkscape:connector-curvature="0" />
      <path
         d="M 0,-4.9987 -4.3289,2.4994 H 4.3289 Z"
         style="fill:none;stroke:#edb120;stroke-linejoin:miter"
         transform="translate(333.96,246.322)"
         id="path658"
         inkscape:connector-curvature="0" />
      <path
         d="M 0,-4.9987 -4.3289,2.4994 H 4.3289 Z"
         style="fill:none;stroke:#edb120;stroke-linejoin:miter"
         transform="translate(350.52,246.51)"
         id="path660"
         inkscape:connector-curvature="0" />
      <path
         d="M 0,-4.9987 -4.3289,2.4994 H 4.3289 Z"
         style="fill:none;stroke:#edb120;stroke-linejoin:miter"
         transform="translate(367.08,246.6071)"
         id="path662"
         inkscape:connector-curvature="0" />
      <path
         d="M 0,-4.9987 -4.3289,2.4994 H 4.3289 Z"
         style="fill:none;stroke:#edb120;stroke-linejoin:miter"
         transform="translate(383.64,246.6573)"
         id="path664"
         inkscape:connector-curvature="0" />
      <path
         d="M 0,-4.9987 -4.3289,2.4994 H 4.3289 Z"
         style="fill:none;stroke:#edb120;stroke-linejoin:miter"
         transform="translate(400.2,246.6834)"
         id="path666"
         inkscape:connector-curvature="0" />
      <path
         d="M 0,-4.9987 -4.3289,2.4994 H 4.3289 Z"
         style="fill:none;stroke:#edb120;stroke-linejoin:miter"
         transform="translate(416.76,246.6969)"
         id="path668"
         inkscape:connector-curvature="0" />
      <path
         d="M 0,-4.9987 -4.3289,2.4994 H 4.3289 Z"
         style="fill:none;stroke:#edb120;stroke-linejoin:miter"
         transform="translate(433.32,246.7039)"
         id="path670"
         inkscape:connector-curvature="0" />
      <path
         d="M 0,-4.9987 -4.3289,2.4994 H 4.3289 Z"
         style="fill:none;stroke:#edb120;stroke-linejoin:miter"
         transform="translate(449.88,246.7075)"
         id="path672"
         inkscape:connector-curvature="0" />
      <path
         d="M 0,-4.9987 -4.3289,2.4994 H 4.3289 Z"
         style="fill:none;stroke:#edb120;stroke-linejoin:miter"
         transform="translate(466.44,246.7094)"
         id="path674"
         inkscape:connector-curvature="0" />
    </g>
    <g
       style="color-interpolation:sRGB;fill:#ffffff;stroke:#ffffff;color-rendering:optimizeSpeed;image-rendering:optimizeSpeed;shape-rendering:crispEdges;text-rendering:optimizeSpeed"
       id="g680" />
    <g
       transform="translate(438.3366,130.4516)"
       style="font-size:13px;font-family:mwa_cmmi10;color-interpolation:linearRGB;color-rendering:optimizeQuality;image-rendering:optimizeQuality;text-rendering:geometricPrecision"
       id="g684">
      <path
         style="stroke:none"
         d="m 0.6406,3.2 q -0.125,0 -0.125,-0.1719 0,-0.0313 0.0156,-0.1094 0.0157,-0.0781 0.0547,-0.125 0.0391,-0.0469 0.086,-0.0469 0.7969,0 1.1093,-0.0937 0.1719,-0.0625 0.25,-0.3438 l 1.7813,-7.1406 q 0.0156,-0.125 0.0156,-0.1875 0,-0.1406 -0.1406,-0.1562 -0.25,-0.0469 -0.9375,-0.0469 -0.1406,0 -0.1406,-0.1719 Q 2.625,-5.425 2.6406,-5.5032 2.6562,-5.5813 2.6953,-5.6282 2.7344,-5.675 2.7812,-5.675 h 3.9376 q 0.4687,0 0.9765,0.1015 0.5078,0.1016 0.9375,0.336 0.4297,0.2343 0.7031,0.6171 0.2735,0.3829 0.2735,0.8985 0,0.6562 -0.4375,1.1719 -0.4375,0.5156 -1.0938,0.8593 -0.6562,0.3438 -1.2812,0.4844 0.5156,0.1875 0.8359,0.5859 0.3203,0.3985 0.3203,0.9297 0,0.0782 0,0.1094 0,0.0313 -0.0156,0.0781 L 7.8438,1.6531 q -0.0157,0.25 -0.0313,0.4297 -0.0156,0.1797 -0.0156,0.289 0,0.3594 0.1093,0.5703 0.1094,0.211 0.4219,0.211 0.4063,0 0.711,-0.3828 Q 9.3438,2.3875 9.4375,1.95 9.5,1.8406 9.5625,1.8406 h 0.125 q 0.125,0 0.125,0.1719 Q 9.7188,2.3875 9.5156,2.7234 9.3125,3.0593 8.9922,3.2703 8.6719,3.4812 8.3125,3.4812 q -0.7656,0 -1.3047,-0.3359 -0.539,-0.336 -0.539,-1.0703 0,-0.2657 0.0624,-0.4688 L 6.8125,0.45 Q 6.8594,0.2937 6.8594,0.075 6.8594,-0.4563 6.4922,-0.7688 6.125,-1.0813 5.5781,-1.0813 H 3.9844 L 3.125,2.3562 q -0.0312,0.1094 -0.0312,0.1875 0,0.125 0.1562,0.1406 0.25,0.0625 0.9375,0.0625 0.125,0 0.125,0.1719 Q 4.2656,3.0906 4.2422,3.1453 4.2188,3.2 4.0938,3.2 Z M 4.0625,-1.4094 H 5.5 q 1.4062,0 2.125,-0.7188 0.3281,-0.3281 0.5234,-0.8437 0.1954,-0.5156 0.1954,-1.0156 0,-0.4844 -0.2813,-0.7579 Q 7.7812,-5.0188 7.3672,-5.1204 6.9531,-5.2219 6.4531,-5.2219 h -0.875 q -0.3593,0 -0.4687,0.0625 Q 5,-5.0969 4.9062,-4.7844 Z"
         id="path682"
         inkscape:connector-curvature="0" />
    </g>
    <g
       transform="translate(438.3366,130.4516)"
       style="font-size:13px;font-family:mwa_cmr10;color-interpolation:linearRGB;color-rendering:optimizeQuality;image-rendering:optimizeQuality;text-rendering:geometricPrecision"
       id="g692">
      <path
         style="stroke:none"
         d="M 14.2581,6.4187 Q 13.5394,5.8562 13.0159,5.114 12.4925,4.3718 12.1566,3.5359 11.8206,2.7 11.6566,1.7859 11.4925,0.8718 11.4925,-0.05 q 0,-0.9375 0.1641,-1.8516 0.164,-0.9141 0.5,-1.7578 0.3359,-0.8438 0.8671,-1.5781 0.5313,-0.7344 1.2344,-1.2813 0,-0.0312 0.0625,-0.0312 h 0.125 q 0.0313,0 0.0625,0.0312 0.0313,0.0313 0.0313,0.0781 0,0.0625 -0.0157,0.0938 -0.6406,0.6094 -1.0625,1.3203 -0.4218,0.7109 -0.6796,1.5156 -0.2579,0.8047 -0.375,1.6641 -0.1172,0.8594 -0.1172,1.7969 0,4.125 2.2187,6.2812 0.0313,0.0313 0.0313,0.1094 0,0.0312 -0.0313,0.0703 Q 14.4769,6.45 14.4456,6.45 h -0.125 q -0.0625,0 -0.0625,-0.0313 z"
         id="path686"
         inkscape:connector-curvature="0" />
      <path
         style="stroke:none"
         d="m 16.4121,2.9812 q 0,-0.0781 0.0156,-0.125 l 0.9687,-3.875 q 0.0938,-0.3594 0.0938,-0.625 0,-0.5625 -0.375,-0.5625 -0.4063,0 -0.6016,0.4844 -0.1953,0.4844 -0.3828,1.2344 0,0.0312 -0.039,0.0546 -0.0391,0.0235 -0.0704,0.0235 h -0.1562 q -0.0469,0 -0.0781,-0.0469 -0.0313,-0.0469 -0.0313,-0.0937 0.1406,-0.5625 0.2735,-0.9532 0.1328,-0.3906 0.4062,-0.7187 0.2734,-0.3281 0.6953,-0.3281 0.4844,0 0.8594,0.3125 0.375,0.3125 0.375,0.7812 0.3906,-0.5 0.9062,-0.7969 0.5157,-0.2968 1.1094,-0.2968 0.4531,0 0.7891,0.164 0.3359,0.1641 0.5234,0.4844 0.1875,0.3203 0.1875,0.7578 0,0.5313 -0.2344,1.2891 -0.2343,0.7578 -0.5937,1.6953 -0.1875,0.4219 -0.1875,0.7812 0,0.375 0.2969,0.375 0.5156,0 0.8515,-0.539 0.336,-0.5391 0.4766,-1.1641 0.0312,-0.0781 0.1094,-0.0781 h 0.1562 q 0.0469,0 0.086,0.0312 0.039,0.0313 0.039,0.0782 0,0.0156 -0.0156,0.0468 -0.1719,0.7344 -0.6172,1.3516 -0.4453,0.6172 -1.1016,0.6172 -0.4531,0 -0.7812,-0.3125 -0.3281,-0.3125 -0.3281,-0.7656 0,-0.2344 0.1093,-0.5 0.1563,-0.4219 0.3672,-1.0157 0.211,-0.5937 0.3516,-1.1328 0.1406,-0.539 0.1406,-0.9453 0,-0.375 -0.1484,-0.625 -0.1485,-0.25 -0.5078,-0.25 -0.4688,0 -0.875,0.2109 -0.4063,0.211 -0.7032,0.5547 -0.2968,0.3438 -0.5468,0.8125 l -0.875,3.5469 q -0.0469,0.1719 -0.2032,0.2969 -0.1562,0.125 -0.3437,0.125 -0.1563,0 -0.2734,-0.1016 -0.1172,-0.1015 -0.1172,-0.2578 z"
         id="path688"
         inkscape:connector-curvature="0" />
      <path
         style="stroke:none"
         d="m 24.259,6.45 q -0.1094,0 -0.1094,-0.1094 0,-0.0625 0.0156,-0.0938 2.2344,-2.1718 2.2344,-6.2968 0,-4.125 -2.2031,-6.2813 -0.0469,-0.0312 -0.0469,-0.1094 0,-0.0468 0.0312,-0.0781 Q 24.2121,-6.55 24.259,-6.55 h 0.125 q 0.0312,0 0.0625,0.0312 0.9375,0.7344 1.5546,1.7891 0.6172,1.0547 0.9063,2.2422 0.2891,1.1875 0.2891,2.4375 0,0.9218 -0.1563,1.8125 Q 26.884,2.6531 26.548,3.5203 26.2121,4.3875 25.6886,5.1218 25.1652,5.8562 24.4465,6.4187 24.4152,6.45 24.384,6.45 Z"
         id="path690"
         inkscape:connector-curvature="0" />
    </g>
    <g
       style="color-interpolation:linearRGB;fill:#0072bd;stroke:#0072bd;stroke-width:1.83329999;stroke-linecap:butt;stroke-linejoin:round;color-rendering:optimizeQuality;image-rendering:optimizeQuality;text-rendering:geometricPrecision"
       id="g698">
      <line
         y2="130.4516"
         style="fill:none"
         x1="397.0094"
         x2="434.57959"
         y1="130.4516"
         id="line694" />
      <path
         d="M 0,-4 V 4 M -4,0 h 8 m -6.6517,-2.6517 5.3034,5.3034 m -5.3034,0 5.3034,-5.3034"
         style="fill:none;stroke-linejoin:miter"
         transform="translate(415.7945,130.4516)"
         id="path696"
         inkscape:connector-curvature="0" />
    </g>
    <g
       transform="translate(438.3366,147)"
       style="font-size:13px;font-family:mwa_cmmi10;color-interpolation:linearRGB;color-rendering:optimizeQuality;image-rendering:optimizeQuality;text-rendering:geometricPrecision"
       id="g702">
      <path
         style="stroke:none"
         d="M 0.5469,3.2 Q 0.4219,3.2 0.4219,3.0281 0.4688,2.7468 0.5781,2.7468 1.3594,2.7468 1.625,2.6843 1.9219,2.6218 2,2.3093 l 1.7812,-7.1406 q 0.0313,-0.125 0.0313,-0.1719 0,-0.0781 -0.0469,-0.1172 Q 3.7188,-5.1594 3.6406,-5.175 3.375,-5.2219 2.6562,-5.2219 2.5156,-5.2219 2.5156,-5.3938 2.5625,-5.5657 2.5859,-5.6204 2.6094,-5.675 2.75,-5.675 h 3.625 q 0.125,0 0.125,0.1718 0,0.0313 -0.0234,0.1016 -0.0235,0.0703 -0.0547,0.125 -0.0313,0.0547 -0.0938,0.0547 -0.7656,0 -1.0469,0.0469 -0.2968,0.0781 -0.375,0.3906 L 3.1406,2.3562 q -0.0312,0.1563 -0.0312,0.1719 0,0.0312 0.0078,0.0625 0.0078,0.0312 0.039,0.0469 0.0313,0.0156 0.0547,0.0312 0.0235,0.0156 0.0703,0.0156 0.2344,0.0625 0.9844,0.0625 0.125,0 0.125,0.1719 Q 4.3438,3.0906 4.3203,3.1453 4.2969,3.2 4.1719,3.2 Z"
         id="path700"
         inkscape:connector-curvature="0" />
    </g>
    <g
       transform="translate(438.3366,147)"
       style="font-size:13px;font-family:mwa_cmr10;color-interpolation:linearRGB;color-rendering:optimizeQuality;image-rendering:optimizeQuality;text-rendering:geometricPrecision"
       id="g710">
      <path
         style="stroke:none"
         d="M 10.9386,6.4187 Q 10.2199,5.8562 9.6965,5.114 9.173,4.3718 8.8371,3.5359 8.5011,2.7 8.3371,1.7859 8.173,0.8718 8.173,-0.05 q 0,-0.9375 0.1641,-1.8516 0.164,-0.9141 0.5,-1.7578 0.3359,-0.8438 0.8672,-1.5781 0.5312,-0.7344 1.2343,-1.2813 0,-0.0312 0.0625,-0.0312 h 0.125 q 0.0313,0 0.0625,0.0312 0.0313,0.0313 0.0313,0.0781 0,0.0625 -0.0156,0.0938 -0.6407,0.6094 -1.0625,1.3203 -0.4219,0.7109 -0.6797,1.5156 -0.2578,0.8047 -0.375,1.6641 -0.1172,0.8594 -0.1172,1.7969 0,4.125 2.2187,6.2812 0.0313,0.0313 0.0313,0.1094 0,0.0312 -0.0313,0.0703 Q 11.1574,6.45 11.1261,6.45 h -0.125 q -0.0625,0 -0.0625,-0.0313 z"
         id="path704"
         inkscape:connector-curvature="0" />
      <path
         style="stroke:none"
         d="m 13.0926,2.9812 q 0,-0.0781 0.0156,-0.125 l 0.9688,-3.875 q 0.0937,-0.3594 0.0937,-0.625 0,-0.5625 -0.375,-0.5625 -0.4062,0 -0.6015,0.4844 -0.1954,0.4844 -0.3829,1.2344 0,0.0312 -0.039,0.0546 -0.0391,0.0235 -0.0703,0.0235 h -0.1563 q -0.0469,0 -0.0781,-0.0469 -0.0313,-0.0469 -0.0313,-0.0937 0.1407,-0.5625 0.2735,-0.9532 0.1328,-0.3906 0.4062,-0.7187 0.2735,-0.3281 0.6953,-0.3281 0.4844,0 0.8594,0.3125 0.375,0.3125 0.375,0.7812 0.3906,-0.5 0.9063,-0.7969 0.5156,-0.2968 1.1093,-0.2968 0.4532,0 0.7891,0.164 0.3359,0.1641 0.5234,0.4844 0.1875,0.3203 0.1875,0.7578 0,0.5313 -0.2343,1.2891 -0.2344,0.7578 -0.5938,1.6953 -0.1875,0.4219 -0.1875,0.7812 0,0.375 0.2969,0.375 0.5156,0 0.8516,-0.539 0.3359,-0.5391 0.4765,-1.1641 0.0313,-0.0781 0.1094,-0.0781 h 0.1562 q 0.0469,0 0.086,0.0312 0.039,0.0313 0.039,0.0782 0,0.0156 -0.0156,0.0468 -0.1719,0.7344 -0.6172,1.3516 -0.4453,0.6172 -1.1015,0.6172 -0.4532,0 -0.7813,-0.3125 -0.3281,-0.3125 -0.3281,-0.7656 0,-0.2344 0.1094,-0.5 0.1562,-0.4219 0.3672,-1.0157 0.2109,-0.5937 0.3515,-1.1328 0.1406,-0.539 0.1406,-0.9453 0,-0.375 -0.1484,-0.625 -0.1484,-0.25 -0.5078,-0.25 -0.4688,0 -0.875,0.2109 -0.4063,0.211 -0.7031,0.5547 -0.2969,0.3438 -0.5469,0.8125 l -0.875,3.5469 q -0.0469,0.1719 -0.2031,0.2969 -0.1563,0.125 -0.3438,0.125 -0.1562,0 -0.2734,-0.1016 -0.1172,-0.1015 -0.1172,-0.2578 z"
         id="path706"
         inkscape:connector-curvature="0" />
      <path
         style="stroke:none"
         d="m 20.9395,6.45 q -0.1094,0 -0.1094,-0.1094 0,-0.0625 0.0156,-0.0938 2.2344,-2.1718 2.2344,-6.2968 0,-4.125 -2.2031,-6.2813 -0.0469,-0.0312 -0.0469,-0.1094 0,-0.0468 0.0312,-0.0781 0.0313,-0.0312 0.0782,-0.0312 h 0.125 q 0.0312,0 0.0625,0.0312 0.9375,0.7344 1.5547,1.7891 0.6171,1.0547 0.9062,2.2422 0.2891,1.1875 0.2891,2.4375 0,0.9218 -0.1563,1.8125 Q 23.5645,2.6531 23.2285,3.5203 22.8926,4.3875 22.3692,5.1218 21.8457,5.8562 21.127,6.4187 21.0957,6.45 21.0645,6.45 Z"
         id="path708"
         inkscape:connector-curvature="0" />
    </g>
    <g
       style="color-interpolation:linearRGB;fill:#d95319;stroke:#d95319;stroke-width:1.83329999;stroke-linecap:butt;stroke-linejoin:round;color-rendering:optimizeQuality;image-rendering:optimizeQuality;text-rendering:geometricPrecision"
       id="g716">
      <line
         y2="147"
         style="fill:none"
         x1="397.0094"
         x2="434.57959"
         y1="147"
         id="line712" />
      <path
         d="m -2.6517,-2.6517 5.3034,5.3034 m -5.3034,0 5.3034,-5.3034"
         style="fill:none;stroke-linejoin:miter"
         transform="translate(415.7945,147)"
         id="path714"
         inkscape:connector-curvature="0" />
    </g>
    <g
       transform="translate(438.3366,163.5484)"
       style="font-size:13px;font-family:mwa_cmmi10;color-interpolation:linearRGB;color-rendering:optimizeQuality;image-rendering:optimizeQuality;text-rendering:geometricPrecision"
       id="g720">
      <path
         style="stroke:none"
         d="M 0.7969,3.4812 Q 0.75,3.4812 0.7188,3.4421 0.6875,3.4031 0.6875,3.3562 L 1.4375,0.325 Q 1.4688,0.2468 1.5469,0.2468 h 0.1562 q 0.0469,0 0.0781,0.0391 Q 1.8125,0.325 1.8125,0.3875 1.7031,0.825 1.7031,1.1687 1.7031,2.1218 2.3516,2.575 3,3.0281 3.9844,3.0281 q 0.4218,0 0.8359,-0.211 Q 5.2344,2.6062 5.5391,2.2703 5.8438,1.9343 6.0312,1.5203 6.2188,1.1062 6.2188,0.6843 6.2188,0.2156 5.9766,-0.136 5.7344,-0.4875 5.3125,-0.5969 L 3.7188,-1.0188 Q 3.0781,-1.1907 2.6953,-1.7063 2.3125,-2.2219 2.3125,-2.8625 q 0,-0.7813 0.4687,-1.5079 0.4688,-0.7265 1.211,-1.164 0.7422,-0.4375 1.5234,-0.4375 0.5938,0 1.0938,0.2187 0.5,0.2188 0.7656,0.7032 l 0.7344,-0.875 q 0.0781,-0.0469 0.0937,-0.0469 h 0.0781 q 0.0469,0 0.0782,0.0469 0.0312,0.0468 0.0312,0.0937 l -0.75,3.0156 Q 7.625,-2.7219 7.5469,-2.7219 H 7.375 q -0.1094,0 -0.1094,-0.1406 0.0625,-0.4219 0.0625,-0.7188 0,-0.6094 -0.2031,-1.0547 Q 6.9219,-5.0813 6.5078,-5.3157 6.0938,-5.55 5.4688,-5.55 q -0.5157,0 -1.0313,0.2968 -0.5156,0.2969 -0.8359,0.7969 -0.3204,0.5 -0.3204,1.0313 0,0.4218 0.25,0.7421 0.25,0.3204 0.6563,0.4297 l 1.5781,0.4219 q 0.4375,0.1094 0.7578,0.3984 0.3204,0.2891 0.4844,0.6875 0.1641,0.3985 0.1641,0.8672 0,0.6094 -0.2578,1.211 Q 6.6562,1.9343 6.1875,2.4343 5.7188,2.9343 5.125,3.2078 4.5312,3.4812 3.9219,3.4812 2.375,3.4812 1.7031,2.575 L 0.9844,3.45 Q 0.9062,3.4812 0.875,3.4812 Z"
         id="path718"
         inkscape:connector-curvature="0" />
    </g>
    <g
       transform="translate(438.3366,163.5484)"
       style="font-size:13px;font-family:mwa_cmr10;color-interpolation:linearRGB;color-rendering:optimizeQuality;image-rendering:optimizeQuality;text-rendering:geometricPrecision"
       id="g728">
      <path
         style="stroke:none"
         d="M 12.9757,6.4187 Q 12.2569,5.8562 11.7335,5.114 11.21,4.3718 10.8741,3.5359 10.5382,2.7 10.3741,1.7859 10.21,0.8718 10.21,-0.05 q 0,-0.9375 0.1641,-1.8516 0.1641,-0.9141 0.5,-1.7578 0.3359,-0.8438 0.8672,-1.5781 0.5312,-0.7344 1.2344,-1.2813 0,-0.0312 0.0625,-0.0312 h 0.125 q 0.0312,0 0.0625,0.0312 0.0312,0.0313 0.0312,0.0781 0,0.0625 -0.0156,0.0938 -0.6406,0.6094 -1.0625,1.3203 -0.4219,0.7109 -0.6797,1.5156 -0.2578,0.8047 -0.375,1.6641 -0.1172,0.8594 -0.1172,1.7969 0,4.125 2.2188,6.2812 0.0312,0.0313 0.0312,0.1094 0,0.0312 -0.0312,0.0703 Q 13.1944,6.45 13.1632,6.45 h -0.125 q -0.0625,0 -0.0625,-0.0313 z"
         id="path722"
         inkscape:connector-curvature="0" />
      <path
         style="stroke:none"
         d="m 15.1296,2.9812 q 0,-0.0781 0.0156,-0.125 l 0.9688,-3.875 q 0.0937,-0.3594 0.0937,-0.625 0,-0.5625 -0.375,-0.5625 -0.4062,0 -0.6015,0.4844 -0.1953,0.4844 -0.3828,1.2344 0,0.0312 -0.0391,0.0546 -0.0391,0.0235 -0.0703,0.0235 h -0.1563 q -0.0468,0 -0.0781,-0.0469 -0.0312,-0.0469 -0.0312,-0.0937 0.1406,-0.5625 0.2734,-0.9532 0.1328,-0.3906 0.4063,-0.7187 0.2734,-0.3281 0.6953,-0.3281 0.4843,0 0.8593,0.3125 0.375,0.3125 0.375,0.7812 0.3907,-0.5 0.9063,-0.7969 0.5156,-0.2968 1.1094,-0.2968 0.4531,0 0.789,0.164 0.336,0.1641 0.5235,0.4844 0.1875,0.3203 0.1875,0.7578 0,0.5313 -0.2344,1.2891 -0.2344,0.7578 -0.5938,1.6953 -0.1875,0.4219 -0.1875,0.7812 0,0.375 0.2969,0.375 0.5156,0 0.8516,-0.539 0.3359,-0.5391 0.4765,-1.1641 0.0313,-0.0781 0.1094,-0.0781 h 0.1563 q 0.0468,0 0.0859,0.0312 0.0391,0.0313 0.0391,0.0782 0,0.0156 -0.0157,0.0468 -0.1718,0.7344 -0.6171,1.3516 -0.4454,0.6172 -1.1016,0.6172 -0.4531,0 -0.7813,-0.3125 -0.3281,-0.3125 -0.3281,-0.7656 0,-0.2344 0.1094,-0.5 0.1562,-0.4219 0.3672,-1.0157 0.2109,-0.5937 0.3515,-1.1328 0.1407,-0.539 0.1407,-0.9453 0,-0.375 -0.1485,-0.625 -0.1484,-0.25 -0.5078,-0.25 -0.4687,0 -0.875,0.2109 -0.4062,0.211 -0.7031,0.5547 -0.2969,0.3438 -0.5469,0.8125 l -0.875,3.5469 q -0.0469,0.1719 -0.2031,0.2969 -0.1563,0.125 -0.3438,0.125 -0.1562,0 -0.2734,-0.1016 -0.1172,-0.1015 -0.1172,-0.2578 z"
         id="path724"
         inkscape:connector-curvature="0" />
      <path
         style="stroke:none"
         d="m 22.9765,6.45 q -0.1094,0 -0.1094,-0.1094 0,-0.0625 0.0157,-0.0938 2.2343,-2.1718 2.2343,-6.2968 0,-4.125 -2.2031,-6.2813 -0.0469,-0.0312 -0.0469,-0.1094 0,-0.0468 0.0313,-0.0781 0.0312,-0.0312 0.0781,-0.0312 h 0.125 q 0.0313,0 0.0625,0.0312 0.9375,0.7344 1.5547,1.7891 0.6172,1.0547 0.9062,2.2422 0.2891,1.1875 0.2891,2.4375 0,0.9218 -0.1562,1.8125 -0.1563,0.8906 -0.4922,1.7578 -0.336,0.8672 -0.8594,1.6015 Q 23.8828,5.8562 23.164,6.4187 23.1328,6.45 23.1015,6.45 Z"
         id="path726"
         inkscape:connector-curvature="0" />
    </g>
    <g
       style="color-interpolation:linearRGB;fill:#edb120;stroke:#edb120;stroke-width:1.83329999;stroke-linecap:butt;stroke-linejoin:round;color-rendering:optimizeQuality;image-rendering:optimizeQuality;text-rendering:geometricPrecision"
       id="g734">
      <line
         y2="163.5484"
         style="fill:none"
         x1="397.0094"
         x2="434.57959"
         y1="163.5484"
         id="line730" />
      <path
         d="M 0,-4.9987 -4.3289,2.4994 H 4.3289 Z"
         style="fill:none;stroke-linejoin:miter"
         transform="translate(415.7945,163.5484)"
         id="path732"
         inkscape:connector-curvature="0" />
    </g>
    <g
       style="color-interpolation:linearRGB;fill:#262626;stroke:#262626;stroke-width:0.83329999;stroke-linecap:butt;color-rendering:optimizeQuality;image-rendering:optimizeQuality;text-rendering:geometricPrecision"
       id="g738">
      <path
         d="m 392,174 v -54 h 80 v 54 z"
         style="fill:none;fill-rule:evenodd"
         id="path736"
         inkscape:connector-curvature="0" />
    </g>
  </g>
</svg>
